M48
;DRILL file {KiCad 4.0.1-stable} date 11/2/2016 1:24:05 PM
;FORMAT={2:4/ absolute / inch / suppress leading zeros}
FMAT,2
INCH,TZ
T1C0.008
T2C0.015
%
G90
G05
M72
T1
X26870Y-17815
X26870Y-18701
X26870Y-19587
X26870Y-20472
X26870Y-21358
X26870Y-22244
X26870Y-23130
X26870Y-24016
X26870Y-24902
X26870Y-25787
X26870Y-26673
X26870Y-27559
X26870Y-28445
X26870Y-29331
X26870Y-30217
X27756Y-17815
X27756Y-18701
X27756Y-19587
X27756Y-20472
X27756Y-21358
X27756Y-22244
X27756Y-23130
X27756Y-24016
X27756Y-24902
X27756Y-25787
X27756Y-26673
X27756Y-27559
X27756Y-28445
X27756Y-29331
X27756Y-30217
X28642Y-17815
X28642Y-18701
X28642Y-19587
X28642Y-20472
X28642Y-21358
X28642Y-22244
X28642Y-23130
X28642Y-24016
X28642Y-24902
X28642Y-25787
X28642Y-26673
X28642Y-27559
X28642Y-28445
X28642Y-29331
X28642Y-30217
X29528Y-17815
X29528Y-18701
X29528Y-19587
X29528Y-20472
X29528Y-21358
X29528Y-22244
X29528Y-23130
X29528Y-24016
X29528Y-24902
X29528Y-25787
X29528Y-26673
X29528Y-27559
X29528Y-28445
X29528Y-29331
X29528Y-30217
X30413Y-17815
X30413Y-18701
X30413Y-19587
X30413Y-20472
X30413Y-21358
X30413Y-22244
X30413Y-23130
X30413Y-24016
X30413Y-24902
X30413Y-25787
X30413Y-26673
X30413Y-27559
X30413Y-28445
X30413Y-29331
X30413Y-30217
X31299Y-17815
X31299Y-18701
X31299Y-19587
X31299Y-20472
X31299Y-21358
X31299Y-22244
X31299Y-23130
X31299Y-24016
X31299Y-24902
X31299Y-25787
X31299Y-26673
X31299Y-27559
X31299Y-28445
X31299Y-29331
X31299Y-30217
X32185Y-17815
X32185Y-18701
X32185Y-19587
X32185Y-20472
X32185Y-21358
X32185Y-22244
X32185Y-23130
X32185Y-24016
X32185Y-24902
X32185Y-25787
X32185Y-26673
X32185Y-27559
X32185Y-28445
X32185Y-29331
X32185Y-30217
X33071Y-17815
X33071Y-18701
X33071Y-19587
X33071Y-20472
X33071Y-21358
X33071Y-22244
X33071Y-23130
X33071Y-24016
X33071Y-24902
X33071Y-25787
X33071Y-26673
X33071Y-27559
X33071Y-28445
X33071Y-29331
X33071Y-30217
T2
X16000Y-17000
X16000Y-18004
X16000Y-19008
X16000Y-20012
X16000Y-24992
X16000Y-25996
X16000Y-27000
X16000Y-28004
X16020Y-20996
X16020Y-22000
X16020Y-23004
X16020Y-24008
X16020Y-29008
X16020Y-30012
X16020Y-31016
X16969Y-16870
X16969Y-17874
X16969Y-18878
X16969Y-19882
X16969Y-24862
X16969Y-25866
X16969Y-26870
X16969Y-27874
X16988Y-20866
X16988Y-21870
X16988Y-22874
X16988Y-23878
X16988Y-28878
X16988Y-29882
X16988Y-30886
X17992Y-16772
X17992Y-17776
X17992Y-18780
X17992Y-19783
X17992Y-24764
X17992Y-25768
X17992Y-26772
X17992Y-27776
X18012Y-20768
X18012Y-21772
X18012Y-22776
X18012Y-23780
X18012Y-28780
X18012Y-29783
X18012Y-30787
X18976Y-16713
X18976Y-17717
X18976Y-18720
X18976Y-19724
X18976Y-24705
X18976Y-25709
X18976Y-26713
X18976Y-27717
X18996Y-20709
X18996Y-21713
X18996Y-22717
X18996Y-23720
X18996Y-28720
X18996Y-29724
X18996Y-30728
X40925Y-16713
X40925Y-17717
X40925Y-18701
X40925Y-19705
X40925Y-24685
X40925Y-25709
X40925Y-26713
X40925Y-27717
X40925Y-28720
X40925Y-29705
X40925Y-30709
X40994Y-22874
X41004Y-21880
X41004Y-23829
X41043Y-20935
X41929Y-16772
X41929Y-17776
X41929Y-18760
X41929Y-19764
X41929Y-24744
X41929Y-25768
X41929Y-26772
X41929Y-27776
X41929Y-28780
X41929Y-29764
X41929Y-30768
X41988Y-21850
X41988Y-23799
X42008Y-22825
X42028Y-20896
X43012Y-16909
X43012Y-17913
X43012Y-18898
X43012Y-19902
X43012Y-20906
X43012Y-21909
X43012Y-22894
X43012Y-23898
X43012Y-24882
X43012Y-25906
X43012Y-26909
X43012Y-27913
X43012Y-28917
X43012Y-29902
X43012Y-30906
X44000Y-17000
X44000Y-18004
X44000Y-18988
X44000Y-19992
X44000Y-20996
X44000Y-22000
X44000Y-22984
X44000Y-23988
X44000Y-24972
X44000Y-25996
X44000Y-27000
X44000Y-28004
X44000Y-29008
X44000Y-29992
X44000Y-30996
T0
M30
