G04 #@! TF.FileFunction,Copper,L2,Bot,Signal*
%FSLAX46Y46*%
G04 Gerber Fmt 4.6, Leading zero omitted, Abs format (unit mm)*
G04 Created by KiCad (PCBNEW 4.0.4-stable) date 11/30/16 04:38:54*
%MOMM*%
%LPD*%
G01*
G04 APERTURE LIST*
%ADD10C,0.150000*%
%ADD11C,0.300000*%
%ADD12C,0.100000*%
G04 APERTURE END LIST*
D10*
D11*
X84000000Y-45250000D03*
X81750000Y-45250000D03*
X79500000Y-45250000D03*
X77250000Y-45250000D03*
X84000000Y-47500000D03*
X81750000Y-47500000D03*
X79500000Y-47500000D03*
X77250000Y-47500000D03*
X84000000Y-49750000D03*
X81750000Y-49750000D03*
X79500000Y-49750000D03*
X77250000Y-49750000D03*
X84000000Y-52000000D03*
X81750000Y-52000000D03*
X79500000Y-52000000D03*
X77250000Y-52000000D03*
X84000000Y-54250000D03*
X81750000Y-54250000D03*
X79500000Y-54250000D03*
X77250000Y-54250000D03*
X84000000Y-56500000D03*
X81750000Y-56500000D03*
X79500000Y-56500000D03*
X77250000Y-56500000D03*
X84000000Y-58750000D03*
X81750000Y-58750000D03*
X79500000Y-58750000D03*
X77250000Y-58750000D03*
X84000000Y-61000000D03*
X81750000Y-61000000D03*
X79500000Y-61000000D03*
X77250000Y-61000000D03*
X84000000Y-63250000D03*
X81750000Y-63250000D03*
X79500000Y-63250000D03*
X77250000Y-63250000D03*
X84000000Y-65500000D03*
X81750000Y-65500000D03*
X79500000Y-65500000D03*
X77250000Y-65500000D03*
X84000000Y-67750000D03*
X81750000Y-67750000D03*
X79500000Y-67750000D03*
X77250000Y-67750000D03*
X84000000Y-70000000D03*
X81750000Y-70000000D03*
X79500000Y-70000000D03*
X77250000Y-70000000D03*
X84000000Y-72250000D03*
X81750000Y-72250000D03*
X79500000Y-72250000D03*
X77250000Y-72250000D03*
X84000000Y-74500000D03*
X81750000Y-74500000D03*
X79500000Y-74500000D03*
X77250000Y-74500000D03*
X84000000Y-76750000D03*
X81750000Y-76750000D03*
X79500000Y-76750000D03*
X77250000Y-76750000D03*
X75000000Y-76750000D03*
X72750000Y-76750000D03*
X70500000Y-76750000D03*
X68250000Y-76750000D03*
X75000000Y-74500000D03*
X72750000Y-74500000D03*
X70500000Y-74500000D03*
X68250000Y-74500000D03*
X75000000Y-72250000D03*
X72750000Y-72250000D03*
X70500000Y-72250000D03*
X68250000Y-72250000D03*
X75000000Y-70000000D03*
X72750000Y-70000000D03*
X70500000Y-70000000D03*
X68250000Y-70000000D03*
X75000000Y-67750000D03*
X72750000Y-67750000D03*
X70500000Y-67750000D03*
X68250000Y-67750000D03*
X75000000Y-65500000D03*
X72750000Y-65500000D03*
X70500000Y-65500000D03*
X68250000Y-65500000D03*
X75000000Y-63250000D03*
X72750000Y-63250000D03*
X70500000Y-63250000D03*
X68250000Y-63250000D03*
X75000000Y-61000000D03*
X72750000Y-61000000D03*
X70500000Y-61000000D03*
X68250000Y-61000000D03*
X75000000Y-58750000D03*
X72750000Y-58750000D03*
X70500000Y-58750000D03*
X68250000Y-58750000D03*
X75000000Y-56500000D03*
X72750000Y-56500000D03*
X70500000Y-56500000D03*
X68250000Y-56500000D03*
X75000000Y-54250000D03*
X72750000Y-54250000D03*
X70500000Y-54250000D03*
X68250000Y-54250000D03*
X75000000Y-52000000D03*
X72750000Y-52000000D03*
X70500000Y-52000000D03*
X68250000Y-52000000D03*
X75000000Y-49750000D03*
X72750000Y-49750000D03*
X70500000Y-49750000D03*
X68250000Y-49750000D03*
X75000000Y-47500000D03*
X72750000Y-47500000D03*
X70500000Y-47500000D03*
X68250000Y-47500000D03*
X75000000Y-45250000D03*
X72750000Y-45250000D03*
X70500000Y-45250000D03*
X68250000Y-45250000D03*
X104140000Y-43180000D03*
X106680000Y-43180000D03*
X109220000Y-43180000D03*
X111760000Y-43180000D03*
X104140000Y-45720000D03*
X106680000Y-45720000D03*
X109220000Y-45720000D03*
X111760000Y-45720000D03*
X104140000Y-48260000D03*
X106680000Y-48260000D03*
X109220000Y-48260000D03*
X111760000Y-48260000D03*
X104140000Y-50800000D03*
X106680000Y-50800000D03*
X109220000Y-50800000D03*
X111760000Y-50800000D03*
X104140000Y-53340000D03*
X106680000Y-53340000D03*
X109220000Y-53340000D03*
X111760000Y-53340000D03*
X104140000Y-55880000D03*
X106680000Y-55880000D03*
X109220000Y-55880000D03*
X111760000Y-55880000D03*
X104140000Y-58420000D03*
X106680000Y-58420000D03*
X109220000Y-58420000D03*
X111760000Y-58420000D03*
X104140000Y-60960000D03*
X106680000Y-60960000D03*
X109220000Y-60960000D03*
X111760000Y-60960000D03*
X104140000Y-63500000D03*
X106680000Y-63500000D03*
X109220000Y-63500000D03*
X111760000Y-63500000D03*
X104140000Y-66040000D03*
X106680000Y-66040000D03*
X109220000Y-66040000D03*
X111760000Y-66040000D03*
X104140000Y-68580000D03*
X106680000Y-68580000D03*
X109220000Y-68580000D03*
X111760000Y-68580000D03*
X104140000Y-71120000D03*
X106680000Y-71120000D03*
X109220000Y-71120000D03*
X111760000Y-71120000D03*
X104140000Y-73660000D03*
X106680000Y-73660000D03*
X109220000Y-73660000D03*
X111760000Y-73660000D03*
X104140000Y-76200000D03*
X106680000Y-76200000D03*
X109220000Y-76200000D03*
X111760000Y-76200000D03*
X104140000Y-78740000D03*
X106680000Y-78740000D03*
X109220000Y-78740000D03*
X111760000Y-78740000D03*
X40640000Y-78740000D03*
X43180000Y-78740000D03*
X45720000Y-78740000D03*
X48260000Y-78740000D03*
X40640000Y-76200000D03*
X43180000Y-76200000D03*
X45720000Y-76200000D03*
X48260000Y-76200000D03*
X40640000Y-73660000D03*
X43180000Y-73660000D03*
X45720000Y-73660000D03*
X48260000Y-73660000D03*
X40640000Y-71120000D03*
X43180000Y-71120000D03*
X45720000Y-71120000D03*
X48260000Y-71120000D03*
X40640000Y-68580000D03*
X43180000Y-68580000D03*
X45720000Y-68580000D03*
X48260000Y-68580000D03*
X40640000Y-66040000D03*
X43180000Y-66040000D03*
X45720000Y-66040000D03*
X48260000Y-66040000D03*
X40640000Y-63500000D03*
X43180000Y-63500000D03*
X45720000Y-63500000D03*
X48260000Y-63500000D03*
X40640000Y-60960000D03*
X43180000Y-60960000D03*
X45720000Y-60960000D03*
X48260000Y-60960000D03*
X40640000Y-58420000D03*
X43180000Y-58420000D03*
X45720000Y-58420000D03*
X48260000Y-58420000D03*
X40640000Y-55880000D03*
X43180000Y-55880000D03*
X45720000Y-55880000D03*
X48260000Y-55880000D03*
X40640000Y-53340000D03*
X43180000Y-53340000D03*
X45720000Y-53340000D03*
X48260000Y-53340000D03*
X40640000Y-50800000D03*
X43180000Y-50800000D03*
X45720000Y-50800000D03*
X48260000Y-50800000D03*
X40640000Y-48260000D03*
X43180000Y-48260000D03*
X45720000Y-48260000D03*
X48260000Y-48260000D03*
X40640000Y-45720000D03*
X43180000Y-45720000D03*
X45720000Y-45720000D03*
X48260000Y-45720000D03*
X40640000Y-43180000D03*
X43180000Y-43180000D03*
X45720000Y-43180000D03*
X48260000Y-43180000D03*
D12*
X106680000Y-43180000D02*
X105155000Y-43180000D01*
X105155000Y-43180000D02*
X104400000Y-42425000D01*
X84575000Y-42425000D02*
X81750000Y-45250000D01*
X104400000Y-42425000D02*
X84575000Y-42425000D01*
X87745002Y-43824998D02*
X85840000Y-45730000D01*
X85840000Y-45730000D02*
X79980000Y-45730000D01*
X79980000Y-45730000D02*
X79500000Y-45250000D01*
X109220000Y-43180000D02*
X109220000Y-43255000D01*
X109220000Y-43255000D02*
X108650002Y-43824998D01*
X108650002Y-43824998D02*
X87745002Y-43824998D01*
X87745002Y-43824998D02*
X87745004Y-43825000D01*
X111760000Y-43180000D02*
X111760000Y-43190000D01*
X111760000Y-43190000D02*
X110875000Y-44075000D01*
X110875000Y-44075000D02*
X88125000Y-44075000D01*
X78160000Y-46160000D02*
X77250000Y-45250000D01*
X86040000Y-46160000D02*
X78160000Y-46160000D01*
X88125000Y-44075000D02*
X86040000Y-46160000D01*
X104140000Y-45720000D02*
X87980000Y-45720000D01*
X84000000Y-47500000D02*
X86200000Y-47500000D01*
X86200000Y-47500000D02*
X87975000Y-45725000D01*
X104140000Y-43180000D02*
X87570000Y-43180000D01*
X84000000Y-45250000D02*
X85500000Y-45250000D01*
X85500000Y-45250000D02*
X87575000Y-43175000D01*
X106680000Y-45720000D02*
X105045000Y-45720000D01*
X105045000Y-45720000D02*
X104400000Y-45075000D01*
X82375000Y-46875000D02*
X81750000Y-47500000D01*
X85975000Y-46875000D02*
X82375000Y-46875000D01*
X87775000Y-45075000D02*
X85975000Y-46875000D01*
X104400000Y-45075000D02*
X87775000Y-45075000D01*
X109220000Y-45720000D02*
X109220000Y-46005000D01*
X108900000Y-46325000D02*
X88175000Y-46325000D01*
X109220000Y-46005000D02*
X108900000Y-46325000D01*
X80100000Y-48100000D02*
X79500000Y-47500000D01*
X86400000Y-48100000D02*
X80100000Y-48100000D01*
X88175000Y-46325000D02*
X86400000Y-48100000D01*
X111760000Y-45720000D02*
X111760000Y-45965000D01*
X111760000Y-45965000D02*
X111000000Y-46725000D01*
X111000000Y-46725000D02*
X88500000Y-46725000D01*
X111760000Y-45730000D02*
X111750000Y-45740000D01*
X78200000Y-48450000D02*
X77250000Y-47500000D01*
X86775000Y-48450000D02*
X78200000Y-48450000D01*
X88500000Y-46725000D02*
X86775000Y-48450000D01*
X104140000Y-48260000D02*
X88290000Y-48260000D01*
X88300000Y-48275000D02*
X88300000Y-48250000D01*
X88300000Y-48270000D02*
X88300000Y-48275000D01*
X88290000Y-48260000D02*
X88300000Y-48270000D01*
X84000000Y-49750000D02*
X86800000Y-49750000D01*
X86800000Y-49750000D02*
X88300000Y-48250000D01*
X106680000Y-48260000D02*
X105335000Y-48260000D01*
X105335000Y-48260000D02*
X104750000Y-47675000D01*
X82450000Y-49050000D02*
X81750000Y-49750000D01*
X86950000Y-49050000D02*
X82450000Y-49050000D01*
X88325000Y-47675000D02*
X86950000Y-49050000D01*
X104750000Y-47675000D02*
X88325000Y-47675000D01*
X81750000Y-49750000D02*
X81750000Y-49600000D01*
X88375000Y-48875000D02*
X86800002Y-50449998D01*
X86800002Y-50449998D02*
X80199998Y-50449998D01*
X79500000Y-49750000D02*
X80199998Y-50449998D01*
X109220000Y-48455000D02*
X108800000Y-48875000D01*
X108800000Y-48875000D02*
X88375000Y-48875000D01*
X109220000Y-48455000D02*
X109220000Y-48260000D01*
X111760000Y-48260000D02*
X111760000Y-48415000D01*
X111760000Y-48415000D02*
X110975000Y-49200000D01*
X110975000Y-49200000D02*
X88625000Y-49200000D01*
X111760000Y-48230000D02*
X111750000Y-48240000D01*
X78200000Y-50700000D02*
X77250000Y-49750000D01*
X87125000Y-50700000D02*
X78200000Y-50700000D01*
X88625000Y-49200000D02*
X87125000Y-50700000D01*
X104140000Y-50800000D02*
X88375000Y-50800000D01*
X88400000Y-50800000D02*
X88400000Y-50775000D01*
X88375000Y-50800000D02*
X88400000Y-50800000D01*
X84000000Y-52000000D02*
X87175000Y-52000000D01*
X87175000Y-52000000D02*
X88400000Y-50775000D01*
X106680000Y-50800000D02*
X105225000Y-50800000D01*
X105225000Y-50800000D02*
X104425000Y-50000000D01*
X82050000Y-52000000D02*
X82600000Y-51450000D01*
X82600000Y-51450000D02*
X87100000Y-51450000D01*
X87100000Y-51450000D02*
X88550000Y-50000000D01*
X88550000Y-50000000D02*
X104425000Y-50000000D01*
X81750000Y-52000000D02*
X82050000Y-52000000D01*
X108350000Y-51450000D02*
X108570000Y-51450000D01*
X79550000Y-52000000D02*
X80040000Y-52490000D01*
X80040000Y-52490000D02*
X87235000Y-52490000D01*
X87235000Y-52490000D02*
X88275000Y-51450000D01*
X88275000Y-51450000D02*
X108350000Y-51450000D01*
X108570000Y-51450000D02*
X109220000Y-50800000D01*
X79500000Y-52000000D02*
X79550000Y-52000000D01*
X111760000Y-50800000D02*
X111760000Y-51040000D01*
X111760000Y-51040000D02*
X111000000Y-51800000D01*
X77250000Y-52000000D02*
X77350000Y-52000000D01*
X77350000Y-52000000D02*
X78300000Y-52950000D01*
X78300000Y-52950000D02*
X87425000Y-52950000D01*
X87425000Y-52950000D02*
X88575000Y-51800000D01*
X88575000Y-51800000D02*
X111000000Y-51800000D01*
X111750000Y-50790000D02*
X111760000Y-50780000D01*
X103950000Y-53475000D02*
X104005000Y-53475000D01*
X87500000Y-54250000D02*
X88275000Y-53475000D01*
X88275000Y-53475000D02*
X103950000Y-53475000D01*
X84000000Y-54250000D02*
X87500000Y-54250000D01*
X104005000Y-53475000D02*
X104140000Y-53340000D01*
X106680000Y-53340000D02*
X105090000Y-53340000D01*
X105090000Y-53340000D02*
X104475000Y-52725000D01*
X81750000Y-54250000D02*
X82350000Y-54250000D01*
X82350000Y-54250000D02*
X83000000Y-53600000D01*
X83000000Y-53600000D02*
X87578556Y-53600000D01*
X87578556Y-53600000D02*
X88453556Y-52725000D01*
X88453556Y-52725000D02*
X104475000Y-52725000D01*
X108425000Y-54025000D02*
X108535000Y-54025000D01*
X108425000Y-54025000D02*
X88350000Y-54025000D01*
X88350000Y-54025000D02*
X87500000Y-54875000D01*
X87500000Y-54875000D02*
X80125000Y-54875000D01*
X79500000Y-54250000D02*
X80125000Y-54875000D01*
X108535000Y-54025000D02*
X109220000Y-53340000D01*
X111760000Y-53340000D02*
X111760000Y-53715000D01*
X111050000Y-54425000D02*
X88450000Y-54425000D01*
X111760000Y-53715000D02*
X111050000Y-54425000D01*
X78250000Y-55250000D02*
X77250000Y-54250000D01*
X87625000Y-55250000D02*
X78250000Y-55250000D01*
X88450000Y-54425000D02*
X87625000Y-55250000D01*
X104120000Y-55900000D02*
X103825000Y-55900000D01*
X87550000Y-56500000D02*
X88150000Y-55900000D01*
X88150000Y-55900000D02*
X103825000Y-55900000D01*
X87550000Y-56500000D02*
X84000000Y-56500000D01*
X104120000Y-55900000D02*
X104140000Y-55880000D01*
X106680000Y-55880000D02*
X105130000Y-55880000D01*
X105130000Y-55880000D02*
X104675000Y-55425000D01*
X81750000Y-56500000D02*
X82400000Y-56500000D01*
X82400000Y-56500000D02*
X83050000Y-55850000D01*
X83050000Y-55850000D02*
X87650000Y-55850000D01*
X87650000Y-55850000D02*
X88075000Y-55425000D01*
X88075000Y-55425000D02*
X104675000Y-55425000D01*
X109220000Y-55880000D02*
X109220000Y-56180000D01*
X88025000Y-56525000D02*
X87500000Y-57050000D01*
X87500000Y-57050000D02*
X80125000Y-57050000D01*
X80125000Y-57050000D02*
X79575000Y-56500000D01*
X108875000Y-56525000D02*
X88025000Y-56525000D01*
X109220000Y-56180000D02*
X108875000Y-56525000D01*
X79575000Y-56500000D02*
X79500000Y-56500000D01*
X111760000Y-55880000D02*
X111760000Y-55990000D01*
X111760000Y-55990000D02*
X110825000Y-56925000D01*
X110825000Y-56925000D02*
X88350000Y-56925000D01*
X78150000Y-57400000D02*
X77250000Y-56500000D01*
X87875000Y-57400000D02*
X78150000Y-57400000D01*
X88350000Y-56925000D02*
X87875000Y-57400000D01*
X104135000Y-58425000D02*
X103800000Y-58425000D01*
X87625000Y-58750000D02*
X87950000Y-58425000D01*
X87950000Y-58425000D02*
X103800000Y-58425000D01*
X87625000Y-58750000D02*
X84000000Y-58750000D01*
X104135000Y-58425000D02*
X104140000Y-58420000D01*
X106680000Y-58420000D02*
X105695000Y-58420000D01*
X105695000Y-58420000D02*
X104950000Y-57675000D01*
X81750000Y-58750000D02*
X82425000Y-58750000D01*
X88375000Y-57675000D02*
X104950000Y-57675000D01*
X88125000Y-57925000D02*
X88375000Y-57675000D01*
X83250000Y-57925000D02*
X88125000Y-57925000D01*
X82425000Y-58750000D02*
X83250000Y-57925000D01*
X109220000Y-58420000D02*
X109220000Y-58680000D01*
X87800000Y-59050000D02*
X87425000Y-59425000D01*
X87425000Y-59425000D02*
X80175000Y-59425000D01*
X80175000Y-59425000D02*
X79500000Y-58750000D01*
X108850000Y-59050000D02*
X87800000Y-59050000D01*
X109220000Y-58680000D02*
X108850000Y-59050000D01*
X111760000Y-58420000D02*
X111760000Y-58565000D01*
X111760000Y-58565000D02*
X110925000Y-59400000D01*
X110925000Y-59400000D02*
X88000000Y-59400000D01*
X78200000Y-59700000D02*
X77250000Y-58750000D01*
X87700000Y-59700000D02*
X78200000Y-59700000D01*
X88000000Y-59400000D02*
X87700000Y-59700000D01*
X104100002Y-60999998D02*
X103675002Y-60999998D01*
X88200000Y-61000000D02*
X88200002Y-60999998D01*
X88200002Y-60999998D02*
X103675002Y-60999998D01*
X88200000Y-61000000D02*
X84000000Y-61000000D01*
X104100002Y-60999998D02*
X104140000Y-60960000D01*
X106680000Y-60960000D02*
X105635000Y-60960000D01*
X105635000Y-60960000D02*
X104675000Y-60000000D01*
X81750000Y-61000000D02*
X81925000Y-61000000D01*
X88625000Y-60000000D02*
X104675000Y-60000000D01*
X88225000Y-60400000D02*
X88625000Y-60000000D01*
X82525000Y-60400000D02*
X88225000Y-60400000D01*
X81925000Y-61000000D02*
X82525000Y-60400000D01*
X109220000Y-60960000D02*
X109190000Y-60960000D01*
X109190000Y-60960000D02*
X108675000Y-61475000D01*
X108675000Y-61475000D02*
X88225000Y-61475000D01*
X80150000Y-61650000D02*
X79500000Y-61000000D01*
X88050000Y-61650000D02*
X80150000Y-61650000D01*
X88225000Y-61475000D02*
X88050000Y-61650000D01*
X87200000Y-61950000D02*
X87450000Y-61950000D01*
X77250000Y-61000000D02*
X78200000Y-61950000D01*
X87200000Y-61950000D02*
X78200000Y-61950000D01*
X87450000Y-61950000D02*
X87950000Y-62450000D01*
X111590000Y-60960000D02*
X111760000Y-60960000D01*
X111590000Y-60960000D02*
X110100000Y-62450000D01*
X110100000Y-62450000D02*
X87950000Y-62450000D01*
X104140000Y-63500000D02*
X87725000Y-63500000D01*
X87725000Y-63500000D02*
X86925000Y-62700000D01*
X86925000Y-62700000D02*
X84550000Y-62700000D01*
X84550000Y-62700000D02*
X84000000Y-63250000D01*
X87125000Y-62300000D02*
X82700000Y-62300000D01*
X81750000Y-63250000D02*
X82700000Y-62300000D01*
X105725000Y-63500000D02*
X105225000Y-63000000D01*
X105225000Y-63000000D02*
X87825000Y-63000000D01*
X105725000Y-63500000D02*
X106680000Y-63500000D01*
X87125000Y-62300000D02*
X87825000Y-63000000D01*
X109220000Y-63500000D02*
X109220000Y-63830000D01*
X87425000Y-64200000D02*
X87025000Y-63800000D01*
X108850000Y-64200000D02*
X87425000Y-64200000D01*
X109220000Y-63830000D02*
X108850000Y-64200000D01*
X80050000Y-63800000D02*
X79500000Y-63250000D01*
X87025000Y-63800000D02*
X80050000Y-63800000D01*
X111760000Y-63500000D02*
X111760000Y-64065000D01*
X87175000Y-64575000D02*
X86900000Y-64300000D01*
X111250000Y-64575000D02*
X87175000Y-64575000D01*
X111760000Y-64065000D02*
X111250000Y-64575000D01*
X78300000Y-64300000D02*
X77250000Y-63250000D01*
X86900000Y-64300000D02*
X78300000Y-64300000D01*
X111750000Y-63440000D02*
X111760000Y-63430000D01*
X104140000Y-66040000D02*
X87190000Y-66040000D01*
X87190000Y-66040000D02*
X86250000Y-65100000D01*
X86250000Y-65100000D02*
X84400000Y-65100000D01*
X84400000Y-65100000D02*
X84000000Y-65500000D01*
X106680000Y-66040000D02*
X106165000Y-66040000D01*
X87450000Y-65550000D02*
X86500000Y-64600000D01*
X105675000Y-65550000D02*
X87450000Y-65550000D01*
X106165000Y-66040000D02*
X105675000Y-65550000D01*
X82650000Y-64600000D02*
X81750000Y-65500000D01*
X86500000Y-64600000D02*
X82650000Y-64600000D01*
X109220000Y-66040000D02*
X109220000Y-66180000D01*
X109220000Y-66180000D02*
X108750000Y-66650000D01*
X108750000Y-66650000D02*
X87050000Y-66650000D01*
X87050000Y-66650000D02*
X86400000Y-66000000D01*
X80000000Y-66000000D02*
X79500000Y-65500000D01*
X86400000Y-66000000D02*
X80000000Y-66000000D01*
X109250000Y-65950000D02*
X109200000Y-66000000D01*
X111760000Y-66040000D02*
X111760000Y-66340000D01*
X86775000Y-67000000D02*
X86275000Y-66500000D01*
X111100000Y-67000000D02*
X86775000Y-67000000D01*
X111760000Y-66340000D02*
X111100000Y-67000000D01*
X78250000Y-66500000D02*
X77250000Y-65500000D01*
X86275000Y-66500000D02*
X78250000Y-66500000D01*
X104140000Y-68580000D02*
X87005000Y-68580000D01*
X87005000Y-68580000D02*
X85925000Y-67500000D01*
X84250000Y-67500000D02*
X84000000Y-67750000D01*
X85925000Y-67500000D02*
X84250000Y-67500000D01*
X106680000Y-68580000D02*
X106280000Y-68580000D01*
X87225000Y-68000000D02*
X86125000Y-66900000D01*
X105700000Y-68000000D02*
X87225000Y-68000000D01*
X106280000Y-68580000D02*
X105700000Y-68000000D01*
X82600000Y-66900000D02*
X81750000Y-67750000D01*
X86125000Y-66900000D02*
X82600000Y-66900000D01*
X109220000Y-68580000D02*
X109220000Y-68705000D01*
X109220000Y-68705000D02*
X108675000Y-69250000D01*
X87000000Y-69250000D02*
X86150000Y-68400000D01*
X108675000Y-69250000D02*
X87000000Y-69250000D01*
X80150000Y-68400000D02*
X79500000Y-67750000D01*
X86150000Y-68400000D02*
X80150000Y-68400000D01*
X111760000Y-68580000D02*
X111760000Y-68790000D01*
X86925000Y-69650000D02*
X86175000Y-68900000D01*
X110900000Y-69650000D02*
X86925000Y-69650000D01*
X111760000Y-68790000D02*
X110900000Y-69650000D01*
X111760000Y-68580000D02*
X111720000Y-68580000D01*
X111750000Y-68590000D02*
X111760000Y-68580000D01*
X78400000Y-68900000D02*
X77250000Y-67750000D01*
X86175000Y-68900000D02*
X78400000Y-68900000D01*
X104140000Y-71120000D02*
X87195000Y-71120000D01*
X87195000Y-71120000D02*
X86075000Y-70000000D01*
X86075000Y-70000000D02*
X84000000Y-70000000D01*
X106680000Y-71120000D02*
X105920000Y-71120000D01*
X87225000Y-70575000D02*
X85850000Y-69200000D01*
X105375000Y-70575000D02*
X87225000Y-70575000D01*
X105920000Y-71120000D02*
X105375000Y-70575000D01*
X82550000Y-69200000D02*
X81750000Y-70000000D01*
X85850000Y-69200000D02*
X82550000Y-69200000D01*
X108050000Y-71850000D02*
X108490000Y-71850000D01*
X108490000Y-71850000D02*
X109220000Y-71120000D01*
X80000000Y-70500000D02*
X79500000Y-70000000D01*
X85950000Y-70500000D02*
X80000000Y-70500000D01*
X87300000Y-71850000D02*
X85950000Y-70500000D01*
X108050000Y-71850000D02*
X87300000Y-71850000D01*
X110675000Y-72150000D02*
X110730000Y-72150000D01*
X110730000Y-72150000D02*
X111760000Y-71120000D01*
X78050000Y-70800000D02*
X77250000Y-70000000D01*
X85825000Y-70800000D02*
X78050000Y-70800000D01*
X87175000Y-72150000D02*
X85825000Y-70800000D01*
X110675000Y-72150000D02*
X87175000Y-72150000D01*
X104140000Y-73660000D02*
X104065000Y-73660000D01*
X104065000Y-73660000D02*
X103925000Y-73800000D01*
X84350000Y-71900000D02*
X84000000Y-72250000D01*
X85800000Y-71900000D02*
X84350000Y-71900000D01*
X87700000Y-73800000D02*
X85800000Y-71900000D01*
X103925000Y-73800000D02*
X87700000Y-73800000D01*
X106680000Y-73660000D02*
X106510000Y-73660000D01*
X106510000Y-73660000D02*
X105825000Y-72975000D01*
X82500000Y-71500000D02*
X81750000Y-72250000D01*
X86050000Y-71500000D02*
X82500000Y-71500000D01*
X87525000Y-72975000D02*
X86050000Y-71500000D01*
X105825000Y-72975000D02*
X87525000Y-72975000D01*
X108500000Y-74200000D02*
X108680000Y-74200000D01*
X108500000Y-74200000D02*
X87575000Y-74200000D01*
X87575000Y-74200000D02*
X86175000Y-72800000D01*
X86175000Y-72800000D02*
X80050000Y-72800000D01*
X79500000Y-72250000D02*
X80050000Y-72800000D01*
X108680000Y-74200000D02*
X109220000Y-73660000D01*
X110775000Y-74525000D02*
X110895000Y-74525000D01*
X110895000Y-74525000D02*
X111760000Y-73660000D01*
X78100000Y-73100000D02*
X77250000Y-72250000D01*
X85975000Y-73100000D02*
X78100000Y-73100000D01*
X87400000Y-74525000D02*
X85975000Y-73100000D01*
X110775000Y-74525000D02*
X87400000Y-74525000D01*
X104140000Y-76200000D02*
X88025000Y-76200000D01*
X88025000Y-76200000D02*
X87275000Y-75450000D01*
X84400000Y-74100000D02*
X84000000Y-74500000D01*
X85925000Y-74100000D02*
X84400000Y-74100000D01*
X87275000Y-75450000D02*
X85925000Y-74100000D01*
X106680000Y-76200000D02*
X106250000Y-76200000D01*
X106250000Y-76200000D02*
X105525000Y-75475000D01*
X105525000Y-75475000D02*
X105525000Y-75500000D01*
X105525000Y-75500000D02*
X105525000Y-75475000D01*
X82750000Y-73500000D02*
X81750000Y-74500000D01*
X85950000Y-73500000D02*
X82750000Y-73500000D01*
X87925000Y-75475000D02*
X85950000Y-73500000D01*
X105525000Y-75475000D02*
X87925000Y-75475000D01*
X108400000Y-76700000D02*
X108720000Y-76700000D01*
X108400000Y-76700000D02*
X87775000Y-76700000D01*
X87775000Y-76700000D02*
X86175000Y-75100000D01*
X86175000Y-75100000D02*
X80100000Y-75100000D01*
X79500000Y-74500000D02*
X80100000Y-75100000D01*
X108720000Y-76700000D02*
X109220000Y-76200000D01*
X110575000Y-77025000D02*
X110935000Y-77025000D01*
X110575000Y-77025000D02*
X87600000Y-77025000D01*
X87600000Y-77025000D02*
X85975000Y-75400000D01*
X85975000Y-75400000D02*
X78150000Y-75400000D01*
X77250000Y-74500000D02*
X78150000Y-75400000D01*
X110935000Y-77025000D02*
X111760000Y-76200000D01*
X111750000Y-76190000D02*
X111760000Y-76180000D01*
X85800000Y-76300000D02*
X88240000Y-78740000D01*
X85800000Y-76300000D02*
X84450000Y-76300000D01*
X84000000Y-76750000D02*
X84450000Y-76300000D01*
X88240000Y-78740000D02*
X104140000Y-78740000D01*
X106680000Y-78740000D02*
X106415000Y-78740000D01*
X88275000Y-78225000D02*
X85850000Y-75800000D01*
X105900000Y-78225000D02*
X88275000Y-78225000D01*
X106415000Y-78740000D02*
X105900000Y-78225000D01*
X82700000Y-75800000D02*
X81750000Y-76750000D01*
X85850000Y-75800000D02*
X82700000Y-75800000D01*
X109220000Y-78740000D02*
X109210000Y-78740000D01*
X109210000Y-78740000D02*
X108600000Y-79350000D01*
X80050000Y-77300000D02*
X79500000Y-76750000D01*
X86125000Y-77300000D02*
X80050000Y-77300000D01*
X88175000Y-79350000D02*
X86125000Y-77300000D01*
X108600000Y-79350000D02*
X88175000Y-79350000D01*
X111760000Y-78740000D02*
X111760000Y-78815000D01*
X111760000Y-78815000D02*
X110900000Y-79675000D01*
X78300000Y-77800000D02*
X77250000Y-76750000D01*
X86000000Y-77800000D02*
X78300000Y-77800000D01*
X87875000Y-79675000D02*
X86000000Y-77800000D01*
X110900000Y-79675000D02*
X87875000Y-79675000D01*
X40690000Y-78780000D02*
X40690000Y-78790000D01*
X40700000Y-78790000D02*
X40690000Y-78780000D01*
X74150000Y-77600000D02*
X75000000Y-76750000D01*
X64150000Y-77600000D02*
X74150000Y-77600000D01*
X62175000Y-79575000D02*
X64150000Y-77600000D01*
X41475000Y-79575000D02*
X62175000Y-79575000D01*
X40690000Y-78790000D02*
X41475000Y-79575000D01*
X44075000Y-79275000D02*
X43715000Y-79275000D01*
X44075000Y-79275000D02*
X61475000Y-79275000D01*
X61475000Y-79275000D02*
X63450000Y-77300000D01*
X63450000Y-77300000D02*
X72200000Y-77300000D01*
X72750000Y-76750000D02*
X72200000Y-77300000D01*
X43715000Y-79275000D02*
X43180000Y-78740000D01*
X45720000Y-78740000D02*
X46360000Y-78740000D01*
X46360000Y-78740000D02*
X46975000Y-78125000D01*
X69650000Y-75900000D02*
X70500000Y-76750000D01*
X62825000Y-75900000D02*
X69650000Y-75900000D01*
X60600000Y-78125000D02*
X62825000Y-75900000D01*
X46975000Y-78125000D02*
X60600000Y-78125000D01*
X48260000Y-78740000D02*
X61060000Y-78740000D01*
X63050000Y-76750000D02*
X68250000Y-76750000D01*
X61060000Y-78740000D02*
X63050000Y-76750000D01*
X41765000Y-77325000D02*
X60500000Y-77325000D01*
X60500000Y-77325000D02*
X62525000Y-75300000D01*
X62525000Y-75300000D02*
X74200000Y-75300000D01*
X75000000Y-74500000D02*
X74200000Y-75300000D01*
X41765000Y-77325000D02*
X40640000Y-76200000D01*
X40690000Y-76230000D02*
X40690000Y-76290000D01*
X40700000Y-76240000D02*
X40690000Y-76230000D01*
X44250000Y-76850000D02*
X43830000Y-76850000D01*
X44250000Y-76850000D02*
X60425000Y-76850000D01*
X60425000Y-76850000D02*
X62275000Y-75000000D01*
X62275000Y-75000000D02*
X72250000Y-75000000D01*
X72750000Y-74500000D02*
X72250000Y-75000000D01*
X43830000Y-76850000D02*
X43180000Y-76200000D01*
X49825000Y-75250000D02*
X60650000Y-75250000D01*
X60650000Y-75250000D02*
X62400000Y-73500000D01*
X45720000Y-76200000D02*
X47325000Y-76200000D01*
X48275000Y-75250000D02*
X49825000Y-75250000D01*
X49825000Y-75250000D02*
X49775000Y-75250000D01*
X47325000Y-76200000D02*
X48275000Y-75250000D01*
X69500000Y-73500000D02*
X70500000Y-74500000D01*
X62400000Y-73500000D02*
X69500000Y-73500000D01*
X60300000Y-76200000D02*
X62000000Y-74500000D01*
X68250000Y-74500000D02*
X62000000Y-74500000D01*
X60300000Y-76200000D02*
X48260000Y-76200000D01*
X40690000Y-73680000D02*
X40690000Y-73690000D01*
X40700000Y-73690000D02*
X40690000Y-73680000D01*
X74150000Y-73100000D02*
X75000000Y-72250000D01*
X62225000Y-73100000D02*
X74150000Y-73100000D01*
X60750000Y-74575000D02*
X62225000Y-73100000D01*
X41575000Y-74575000D02*
X60750000Y-74575000D01*
X40690000Y-73690000D02*
X41575000Y-74575000D01*
X43180000Y-73660000D02*
X43180000Y-73855000D01*
X43500000Y-74175000D02*
X43875000Y-74175000D01*
X43180000Y-73855000D02*
X43500000Y-74175000D01*
X72200000Y-72800000D02*
X72750000Y-72250000D01*
X61900000Y-72800000D02*
X72200000Y-72800000D01*
X60525000Y-74175000D02*
X61900000Y-72800000D01*
X43875000Y-74175000D02*
X60525000Y-74175000D01*
X48187500Y-73062500D02*
X60412500Y-73062500D01*
X60412500Y-73062500D02*
X61875000Y-71600000D01*
X45720000Y-73660000D02*
X47590000Y-73660000D01*
X47590000Y-73660000D02*
X48187500Y-73062500D01*
X69850000Y-71600000D02*
X70500000Y-72250000D01*
X61875000Y-71600000D02*
X69850000Y-71600000D01*
X48260000Y-73660000D02*
X60565000Y-73660000D01*
X60565000Y-73660000D02*
X62025000Y-72200000D01*
X62025000Y-72200000D02*
X68200000Y-72200000D01*
X68200000Y-72200000D02*
X68250000Y-72250000D01*
X40640000Y-71130000D02*
X40730000Y-71130000D01*
X40650000Y-71140000D02*
X40640000Y-71130000D01*
X74200000Y-70800000D02*
X75000000Y-70000000D01*
X61875000Y-70800000D02*
X74200000Y-70800000D01*
X60750000Y-71925000D02*
X61875000Y-70800000D01*
X41525000Y-71925000D02*
X60750000Y-71925000D01*
X40730000Y-71130000D02*
X41525000Y-71925000D01*
X43925000Y-71525000D02*
X43585000Y-71525000D01*
X43585000Y-71525000D02*
X43180000Y-71120000D01*
X72250000Y-70500000D02*
X72750000Y-70000000D01*
X61475000Y-70500000D02*
X72250000Y-70500000D01*
X60450000Y-71525000D02*
X61475000Y-70500000D01*
X43925000Y-71525000D02*
X60450000Y-71525000D01*
X47487500Y-70637500D02*
X59712500Y-70637500D01*
X61350000Y-69000000D02*
X61325000Y-69000000D01*
X59712500Y-70637500D02*
X61350000Y-69000000D01*
X45720000Y-71120000D02*
X47005000Y-71120000D01*
X47005000Y-71120000D02*
X47487500Y-70637500D01*
X69500000Y-69000000D02*
X70500000Y-70000000D01*
X61325000Y-69000000D02*
X69500000Y-69000000D01*
X48260000Y-71120000D02*
X60130000Y-71120000D01*
X60130000Y-71120000D02*
X61950000Y-69300000D01*
X48260000Y-71120000D02*
X48305000Y-71120000D01*
X67550000Y-69300000D02*
X68250000Y-70000000D01*
X61950000Y-69300000D02*
X67550000Y-69300000D01*
X40640000Y-68580000D02*
X40640000Y-68865000D01*
X60150000Y-69625000D02*
X61075000Y-68700000D01*
X41400000Y-69625000D02*
X60150000Y-69625000D01*
X40640000Y-68865000D02*
X41400000Y-69625000D01*
X61075000Y-68700000D02*
X74050000Y-68700000D01*
X74050000Y-68700000D02*
X75000000Y-67750000D01*
X40640000Y-68640000D02*
X40700000Y-68700000D01*
X43180000Y-68580000D02*
X43180000Y-68705000D01*
X43180000Y-68705000D02*
X43700000Y-69225000D01*
X59825000Y-69225000D02*
X60650000Y-68400000D01*
X43700000Y-69225000D02*
X59825000Y-69225000D01*
X72100000Y-68400000D02*
X72750000Y-67750000D01*
X60650000Y-68400000D02*
X72100000Y-68400000D01*
X45720000Y-68580000D02*
X47320000Y-68580000D01*
X59700000Y-68050000D02*
X61150000Y-66600000D01*
X47850000Y-68050000D02*
X59700000Y-68050000D01*
X47320000Y-68580000D02*
X47850000Y-68050000D01*
X69350000Y-66600000D02*
X70500000Y-67750000D01*
X61150000Y-66600000D02*
X69350000Y-66600000D01*
X48260000Y-68580000D02*
X59745000Y-68580000D01*
X59745000Y-68580000D02*
X61425000Y-66900000D01*
X67400000Y-66900000D02*
X68250000Y-67750000D01*
X61425000Y-66900000D02*
X67400000Y-66900000D01*
X40640000Y-66040000D02*
X40640000Y-66190000D01*
X40640000Y-66190000D02*
X41700000Y-67250000D01*
X41700000Y-67250000D02*
X60000000Y-67250000D01*
X60000000Y-67250000D02*
X60950000Y-66300000D01*
X40640000Y-66030000D02*
X40640000Y-66140000D01*
X40650000Y-66040000D02*
X40640000Y-66030000D01*
X74200000Y-66300000D02*
X75000000Y-65500000D01*
X60950000Y-66300000D02*
X74200000Y-66300000D01*
X43180000Y-66040000D02*
X43180000Y-66330000D01*
X59700000Y-66925000D02*
X60625000Y-66000000D01*
X43775000Y-66925000D02*
X59700000Y-66925000D01*
X43180000Y-66330000D02*
X43775000Y-66925000D01*
X72250000Y-66000000D02*
X72750000Y-65500000D01*
X60625000Y-66000000D02*
X72250000Y-66000000D01*
X45720000Y-66040000D02*
X47235000Y-66040000D01*
X59875000Y-65575000D02*
X61050000Y-64400000D01*
X47700000Y-65575000D02*
X59875000Y-65575000D01*
X47235000Y-66040000D02*
X47700000Y-65575000D01*
X69400000Y-64400000D02*
X70500000Y-65500000D01*
X61050000Y-64400000D02*
X69400000Y-64400000D01*
X48260000Y-66040000D02*
X60060000Y-66040000D01*
X60060000Y-66040000D02*
X60800000Y-65300000D01*
X60800000Y-65300000D02*
X68050000Y-65300000D01*
X68050000Y-65300000D02*
X68250000Y-65500000D01*
X40640000Y-63500000D02*
X40640000Y-63890000D01*
X60050000Y-64850000D02*
X60800000Y-64100000D01*
X41600000Y-64850000D02*
X60050000Y-64850000D01*
X40640000Y-63890000D02*
X41600000Y-64850000D01*
X40640000Y-63500000D02*
X40700000Y-63500000D01*
X40640000Y-63480000D02*
X40680000Y-63480000D01*
X40650000Y-63490000D02*
X40640000Y-63480000D01*
X74150000Y-64100000D02*
X75000000Y-63250000D01*
X60800000Y-64100000D02*
X74150000Y-64100000D01*
X43180000Y-63500000D02*
X43180000Y-63805000D01*
X59850000Y-64525000D02*
X60575000Y-63800000D01*
X43900000Y-64525000D02*
X59850000Y-64525000D01*
X43180000Y-63805000D02*
X43900000Y-64525000D01*
X72200000Y-63800000D02*
X72750000Y-63250000D01*
X60575000Y-63800000D02*
X72200000Y-63800000D01*
X45720000Y-63500000D02*
X47125000Y-63500000D01*
X60175000Y-63050000D02*
X61125000Y-62100000D01*
X47575000Y-63050000D02*
X60175000Y-63050000D01*
X47125000Y-63500000D02*
X47575000Y-63050000D01*
X69350000Y-62100000D02*
X70500000Y-63250000D01*
X61125000Y-62100000D02*
X69350000Y-62100000D01*
X48260000Y-63500000D02*
X48260000Y-63660000D01*
X59500000Y-64175000D02*
X60925000Y-62750000D01*
X48775000Y-64175000D02*
X59500000Y-64175000D01*
X48260000Y-63660000D02*
X48775000Y-64175000D01*
X60925000Y-62750000D02*
X67750000Y-62750000D01*
X67750000Y-62750000D02*
X68250000Y-63250000D01*
X40640000Y-60960000D02*
X40640000Y-61615000D01*
X60575000Y-62100000D02*
X60875000Y-61800000D01*
X41125000Y-62100000D02*
X60575000Y-62100000D01*
X40640000Y-61615000D02*
X41125000Y-62100000D01*
X40690000Y-60980000D02*
X40690000Y-60990000D01*
X40700000Y-60990000D02*
X40690000Y-60980000D01*
X74200000Y-61800000D02*
X75000000Y-61000000D01*
X60875000Y-61800000D02*
X74200000Y-61800000D01*
X43180000Y-60960000D02*
X43180000Y-61480000D01*
X60350000Y-61700000D02*
X60550000Y-61500000D01*
X43400000Y-61700000D02*
X60350000Y-61700000D01*
X43180000Y-61480000D02*
X43400000Y-61700000D01*
X72250000Y-61500000D02*
X72750000Y-61000000D01*
X60550000Y-61500000D02*
X72250000Y-61500000D01*
X45720000Y-60960000D02*
X47565000Y-60960000D01*
X67225002Y-60550000D02*
X67925000Y-59850002D01*
X47975000Y-60550000D02*
X67225002Y-60550000D01*
X47565000Y-60960000D02*
X47975000Y-60550000D01*
X69350002Y-59850002D02*
X70500000Y-61000000D01*
X67925000Y-59850002D02*
X69350002Y-59850002D01*
X48260000Y-60960000D02*
X48660000Y-60960000D01*
X48700000Y-61000000D02*
X68250000Y-61000000D01*
X48660000Y-60960000D02*
X48700000Y-61000000D01*
X40640000Y-58420000D02*
X40640000Y-58540000D01*
X40640000Y-58540000D02*
X41675000Y-59575000D01*
X40700000Y-58440000D02*
X40690000Y-58430000D01*
X74175000Y-59575000D02*
X75000000Y-58750000D01*
X41675000Y-59575000D02*
X74175000Y-59575000D01*
X44500000Y-59300000D02*
X44060000Y-59300000D01*
X44500000Y-59300000D02*
X72200000Y-59300000D01*
X72750000Y-58750000D02*
X72200000Y-59300000D01*
X44060000Y-59300000D02*
X43180000Y-58420000D01*
X70500000Y-58750000D02*
X69625000Y-57875000D01*
X46580000Y-58420000D02*
X45720000Y-58420000D01*
X47125000Y-57875000D02*
X63675000Y-57875000D01*
X46580000Y-58420000D02*
X47125000Y-57875000D01*
X63675000Y-57875000D02*
X69625000Y-57875000D01*
X48260000Y-58420000D02*
X63620000Y-58420000D01*
X63620000Y-58420000D02*
X63625000Y-58425000D01*
X63950000Y-58750000D02*
X68250000Y-58750000D01*
X63625000Y-58425000D02*
X63950000Y-58750000D01*
X40640000Y-55880000D02*
X40640000Y-56340000D01*
X63325000Y-57025000D02*
X63600000Y-57300000D01*
X63600000Y-57300000D02*
X74200000Y-57300000D01*
X74200000Y-57300000D02*
X75000000Y-56500000D01*
X41325000Y-57025000D02*
X63325000Y-57025000D01*
X40640000Y-56340000D02*
X41325000Y-57025000D01*
X40700000Y-55890000D02*
X40690000Y-55880000D01*
X43180000Y-55880000D02*
X43180000Y-55930000D01*
X43180000Y-55930000D02*
X43800000Y-56550000D01*
X43800000Y-56550000D02*
X63450000Y-56550000D01*
X72250000Y-57000000D02*
X72750000Y-56500000D01*
X63900000Y-57000000D02*
X72250000Y-57000000D01*
X63450000Y-56550000D02*
X63900000Y-57000000D01*
X45720000Y-55880000D02*
X46670000Y-55880000D01*
X46670000Y-55880000D02*
X47325000Y-55225000D01*
X69400000Y-55400000D02*
X70500000Y-56500000D01*
X63700000Y-55400000D02*
X69400000Y-55400000D01*
X63525000Y-55225000D02*
X63700000Y-55400000D01*
X47325000Y-55225000D02*
X63525000Y-55225000D01*
X48260000Y-55880000D02*
X63380000Y-55880000D01*
X63380000Y-55880000D02*
X63375000Y-55875000D01*
X64000000Y-56500000D02*
X68250000Y-56500000D01*
X63375000Y-55875000D02*
X64000000Y-56500000D01*
X40640000Y-53340000D02*
X40640000Y-53365000D01*
X40640000Y-53365000D02*
X41625000Y-54350000D01*
X40700000Y-53340000D02*
X40690000Y-53330000D01*
X74199998Y-55050002D02*
X75000000Y-54250000D01*
X64050002Y-55050002D02*
X74199998Y-55050002D01*
X63350000Y-54350000D02*
X64050002Y-55050002D01*
X41625000Y-54350000D02*
X63350000Y-54350000D01*
X43180000Y-53340000D02*
X43180000Y-53579998D01*
X43600002Y-54000000D02*
X63700000Y-54000000D01*
X43180000Y-53579998D02*
X43600002Y-54000000D01*
X72200000Y-54800000D02*
X72750000Y-54250000D01*
X64500000Y-54800000D02*
X72200000Y-54800000D01*
X63700000Y-54000000D02*
X64500000Y-54800000D01*
X45720000Y-53340000D02*
X46535000Y-53340000D01*
X46535000Y-53340000D02*
X47100000Y-52775000D01*
X69450000Y-53200000D02*
X70500000Y-54250000D01*
X64200000Y-53200000D02*
X69450000Y-53200000D01*
X63775000Y-52775000D02*
X64200000Y-53200000D01*
X47100000Y-52775000D02*
X63775000Y-52775000D01*
X63640000Y-53340000D02*
X64550000Y-54250000D01*
X68250000Y-54250000D02*
X64550000Y-54250000D01*
X63640000Y-53340000D02*
X48260000Y-53340000D01*
X40640000Y-50800000D02*
X40640000Y-50940000D01*
X40640000Y-50940000D02*
X41650000Y-51950000D01*
X74200000Y-52800000D02*
X75000000Y-52000000D01*
X64600000Y-52800000D02*
X74200000Y-52800000D01*
X63750000Y-51950000D02*
X64600000Y-52800000D01*
X41650000Y-51950000D02*
X63750000Y-51950000D01*
X43180000Y-50800000D02*
X43375000Y-50800000D01*
X43925000Y-51350000D02*
X63750000Y-51350000D01*
X63750000Y-51350000D02*
X64900000Y-52500000D01*
X64900000Y-52500000D02*
X72250000Y-52500000D01*
X72250000Y-52500000D02*
X72750000Y-52000000D01*
X43375000Y-50800000D02*
X43925000Y-51350000D01*
X45720000Y-50800000D02*
X46400000Y-50800000D01*
X46400000Y-50800000D02*
X47225000Y-49975000D01*
X69500000Y-51000000D02*
X70500000Y-52000000D01*
X64900000Y-51000000D02*
X69500000Y-51000000D01*
X63875000Y-49975000D02*
X64900000Y-51000000D01*
X47225000Y-49975000D02*
X63875000Y-49975000D01*
X48260000Y-50800000D02*
X64000000Y-50800000D01*
X65200000Y-52000000D02*
X68250000Y-52000000D01*
X64000000Y-50800000D02*
X65200000Y-52000000D01*
X40640000Y-48260000D02*
X40660000Y-48260000D01*
X40660000Y-48260000D02*
X41675000Y-49275000D01*
X40640000Y-48280000D02*
X40680000Y-48280000D01*
X40650000Y-48290000D02*
X40640000Y-48280000D01*
X74150000Y-50600000D02*
X75000000Y-49750000D01*
X65400000Y-50600000D02*
X74150000Y-50600000D01*
X64075000Y-49275000D02*
X65400000Y-50600000D01*
X41675000Y-49275000D02*
X64075000Y-49275000D01*
X44200000Y-49000000D02*
X43920000Y-49000000D01*
X44200000Y-49000000D02*
X64500000Y-49000000D01*
X64500000Y-49000000D02*
X65800000Y-50300000D01*
X65800000Y-50300000D02*
X72200000Y-50300000D01*
X72750000Y-49750000D02*
X72200000Y-50300000D01*
X43920000Y-49000000D02*
X43180000Y-48260000D01*
X45720000Y-48260000D02*
X46215000Y-48260000D01*
X46215000Y-48260000D02*
X46975000Y-47500000D01*
X69350000Y-48600000D02*
X70500000Y-49750000D01*
X65700000Y-48600000D02*
X69350000Y-48600000D01*
X64600000Y-47500000D02*
X65700000Y-48600000D01*
X46975000Y-47500000D02*
X64600000Y-47500000D01*
X64660000Y-48260000D02*
X65700000Y-49300000D01*
X48260000Y-48260000D02*
X64660000Y-48260000D01*
X65700000Y-49300000D02*
X67800000Y-49300000D01*
X67800000Y-49300000D02*
X68250000Y-49750000D01*
X41550000Y-46650000D02*
X41550000Y-46630000D01*
X41550000Y-46650000D02*
X64450000Y-46650000D01*
X64450000Y-46650000D02*
X66100000Y-48300000D01*
X66100000Y-48300000D02*
X74200000Y-48300000D01*
X75000000Y-47500000D02*
X74200000Y-48300000D01*
X41550000Y-46630000D02*
X40640000Y-45720000D01*
X43180000Y-45720000D02*
X43720000Y-45720000D01*
X44300000Y-46300000D02*
X64600000Y-46300000D01*
X64600000Y-46300000D02*
X66300000Y-48000000D01*
X66300000Y-48000000D02*
X72250000Y-48000000D01*
X72250000Y-48000000D02*
X72750000Y-47500000D01*
X43720000Y-45720000D02*
X44300000Y-46300000D01*
X45720000Y-45720000D02*
X47355000Y-45720000D01*
X47355000Y-45720000D02*
X48200000Y-44875000D01*
X69400000Y-46400000D02*
X70500000Y-47500000D01*
X66500000Y-46400000D02*
X69400000Y-46400000D01*
X64975000Y-44875000D02*
X66500000Y-46400000D01*
X48200000Y-44875000D02*
X64975000Y-44875000D01*
X64920000Y-45720000D02*
X66700000Y-47500000D01*
X68250000Y-47500000D02*
X66700000Y-47500000D01*
X64920000Y-45720000D02*
X48260000Y-45720000D01*
X40640000Y-43180000D02*
X40680000Y-43180000D01*
X40680000Y-43180000D02*
X41625000Y-44125000D01*
X74150000Y-46100000D02*
X75000000Y-45250000D01*
X67200000Y-46100000D02*
X74150000Y-46100000D01*
X65225000Y-44125000D02*
X67200000Y-46100000D01*
X41625000Y-44125000D02*
X65225000Y-44125000D01*
X43650000Y-43650000D02*
X65350000Y-43650000D01*
X72750000Y-45250000D02*
X72200000Y-45800000D01*
X67500000Y-45800000D02*
X72200000Y-45800000D01*
X65350000Y-43650000D02*
X67500000Y-45800000D01*
X43650000Y-43650000D02*
X43180000Y-43180000D01*
X45720000Y-43180000D02*
X45945000Y-43180000D01*
X45945000Y-43180000D02*
X46525000Y-42600000D01*
X67850000Y-42600000D02*
X70500000Y-45250000D01*
X46525000Y-42600000D02*
X67850000Y-42600000D01*
X48260000Y-43180000D02*
X48895000Y-43180000D01*
X48895000Y-43180000D02*
X49175000Y-42900000D01*
X49175000Y-42900000D02*
X65900000Y-42900000D01*
X65900000Y-42900000D02*
X68250000Y-45250000D01*
M02*
