G04 #@! TF.FileFunction,Copper,L2,Bot,Signal*
%FSLAX46Y46*%
G04 Gerber Fmt 4.6, Leading zero omitted, Abs format (unit mm)*
G04 Created by KiCad (PCBNEW 4.0.4-stable) date 11/30/16 02:15:23*
%MOMM*%
%LPD*%
G01*
G04 APERTURE LIST*
%ADD10C,0.150000*%
%ADD11C,0.300000*%
%ADD12C,0.100000*%
G04 APERTURE END LIST*
D10*
D11*
X84000000Y-45250000D03*
X81750000Y-45250000D03*
X79500000Y-45250000D03*
X77250000Y-45250000D03*
X84000000Y-47500000D03*
X81750000Y-47500000D03*
X79500000Y-47500000D03*
X77250000Y-47500000D03*
X84000000Y-49750000D03*
X81750000Y-49750000D03*
X79500000Y-49750000D03*
X77250000Y-49750000D03*
X84000000Y-52000000D03*
X81750000Y-52000000D03*
X79500000Y-52000000D03*
X77250000Y-52000000D03*
X84000000Y-54250000D03*
X81750000Y-54250000D03*
X79500000Y-54250000D03*
X77250000Y-54250000D03*
X84000000Y-56500000D03*
X81750000Y-56500000D03*
X79500000Y-56500000D03*
X77250000Y-56500000D03*
X84000000Y-58750000D03*
X81750000Y-58750000D03*
X79500000Y-58750000D03*
X77250000Y-58750000D03*
X84000000Y-61000000D03*
X81750000Y-61000000D03*
X79500000Y-61000000D03*
X77250000Y-61000000D03*
X84000000Y-63250000D03*
X81750000Y-63250000D03*
X79500000Y-63250000D03*
X77250000Y-63250000D03*
X84000000Y-65500000D03*
X81750000Y-65500000D03*
X79500000Y-65500000D03*
X77250000Y-65500000D03*
X84000000Y-67750000D03*
X81750000Y-67750000D03*
X79500000Y-67750000D03*
X77250000Y-67750000D03*
X84000000Y-70000000D03*
X81750000Y-70000000D03*
X79500000Y-70000000D03*
X77250000Y-70000000D03*
X84000000Y-72250000D03*
X81750000Y-72250000D03*
X79500000Y-72250000D03*
X77250000Y-72250000D03*
X84000000Y-74500000D03*
X81750000Y-74500000D03*
X79500000Y-74500000D03*
X77250000Y-74500000D03*
X84000000Y-76750000D03*
X81750000Y-76750000D03*
X79500000Y-76750000D03*
X77250000Y-76750000D03*
X75000000Y-76750000D03*
X72750000Y-76750000D03*
X70500000Y-76750000D03*
X68250000Y-76750000D03*
X75000000Y-74500000D03*
X72750000Y-74500000D03*
X70500000Y-74500000D03*
X68250000Y-74500000D03*
X75000000Y-72250000D03*
X72750000Y-72250000D03*
X70500000Y-72250000D03*
X68250000Y-72250000D03*
X75000000Y-70000000D03*
X72750000Y-70000000D03*
X70500000Y-70000000D03*
X68250000Y-70000000D03*
X75000000Y-67750000D03*
X72750000Y-67750000D03*
X70500000Y-67750000D03*
X68250000Y-67750000D03*
X75000000Y-65500000D03*
X72750000Y-65500000D03*
X70500000Y-65500000D03*
X68250000Y-65500000D03*
X75000000Y-63250000D03*
X72750000Y-63250000D03*
X70500000Y-63250000D03*
X68250000Y-63250000D03*
X75000000Y-61000000D03*
X72750000Y-61000000D03*
X70500000Y-61000000D03*
X68250000Y-61000000D03*
X75000000Y-58750000D03*
X72750000Y-58750000D03*
X70500000Y-58750000D03*
X68250000Y-58750000D03*
X75000000Y-56500000D03*
X72750000Y-56500000D03*
X70500000Y-56500000D03*
X68250000Y-56500000D03*
X75000000Y-54250000D03*
X72750000Y-54250000D03*
X70500000Y-54250000D03*
X68250000Y-54250000D03*
X75000000Y-52000000D03*
X72750000Y-52000000D03*
X70500000Y-52000000D03*
X68250000Y-52000000D03*
X75000000Y-49750000D03*
X72750000Y-49750000D03*
X70500000Y-49750000D03*
X68250000Y-49750000D03*
X75000000Y-47500000D03*
X72750000Y-47500000D03*
X70500000Y-47500000D03*
X68250000Y-47500000D03*
X75000000Y-45250000D03*
X72750000Y-45250000D03*
X70500000Y-45250000D03*
X68250000Y-45250000D03*
X106500000Y-42600000D03*
X109250000Y-42950000D03*
X111760000Y-43180000D03*
X103950000Y-45000000D03*
X103950000Y-42450000D03*
X106500000Y-45150000D03*
X109250000Y-45500000D03*
X111760000Y-45730000D03*
X103950000Y-47500000D03*
X106500000Y-47650000D03*
X109250000Y-48000000D03*
X111760000Y-48230000D03*
X103950000Y-50050000D03*
X106500000Y-50200000D03*
X109250000Y-50550000D03*
X111760000Y-50780000D03*
X104250000Y-53175000D03*
X106750000Y-53075000D03*
X109250000Y-53100000D03*
X111760000Y-53330000D03*
X104150000Y-55575000D03*
X106650000Y-55500000D03*
X109250000Y-55650000D03*
X111760000Y-55880000D03*
X104125000Y-58100000D03*
X106700000Y-57975000D03*
X109250000Y-58150000D03*
X111760000Y-58380000D03*
X104150000Y-60525000D03*
X106650000Y-60450000D03*
X109250000Y-60700000D03*
X111760000Y-60930000D03*
X103950000Y-62700000D03*
X106500000Y-62850000D03*
X109250000Y-63200000D03*
X111760000Y-63430000D03*
X103950000Y-65300000D03*
X106500000Y-65450000D03*
X109250000Y-65800000D03*
X111760000Y-66030000D03*
X103950000Y-67850000D03*
X106500000Y-68000000D03*
X109250000Y-68350000D03*
X111760000Y-68580000D03*
X103950000Y-70400000D03*
X106500000Y-70550000D03*
X109250000Y-70900000D03*
X111760000Y-71130000D03*
X103950000Y-72950000D03*
X106500000Y-73100000D03*
X109250000Y-73450000D03*
X111760000Y-73680000D03*
X103950000Y-75450000D03*
X106500000Y-75600000D03*
X109250000Y-75950000D03*
X111760000Y-76180000D03*
X103950000Y-78000000D03*
X106500000Y-78150000D03*
X109250000Y-78500000D03*
X111760000Y-78730000D03*
X40690000Y-78780000D03*
X43150000Y-78450000D03*
X45750000Y-78200000D03*
X48250000Y-78050000D03*
X40690000Y-76230000D03*
X43150000Y-75900000D03*
X45750000Y-75650000D03*
X48250000Y-75500000D03*
X40690000Y-73680000D03*
X43150000Y-73350000D03*
X45750000Y-73100000D03*
X48250000Y-72950000D03*
X40640000Y-71130000D03*
X43100000Y-70800000D03*
X45700000Y-70550000D03*
X48200000Y-70400000D03*
X40640000Y-68580000D03*
X43100000Y-68250000D03*
X45700000Y-68000000D03*
X48200000Y-67850000D03*
X40640000Y-66030000D03*
X43100000Y-65700000D03*
X45700000Y-65450000D03*
X48200000Y-65300000D03*
X40640000Y-63480000D03*
X43100000Y-63150000D03*
X45700000Y-62900000D03*
X48200000Y-62750000D03*
X40690000Y-60980000D03*
X43150000Y-60650000D03*
X45750000Y-60400000D03*
X48250000Y-60250000D03*
X40690000Y-58430000D03*
X43150000Y-58100000D03*
X45750000Y-57850000D03*
X48250000Y-57700000D03*
X40690000Y-55880000D03*
X43150000Y-55550000D03*
X45750000Y-55300000D03*
X48250000Y-55150000D03*
X40690000Y-53330000D03*
X43150000Y-53000000D03*
X45750000Y-52750000D03*
X48250000Y-52600000D03*
X40640000Y-50830000D03*
X43100000Y-50500000D03*
X45700000Y-50250000D03*
X48200000Y-50100000D03*
X40640000Y-48280000D03*
X43100000Y-47950000D03*
X45700000Y-47700000D03*
X48200000Y-47550000D03*
X40640000Y-45730000D03*
X43100000Y-45400000D03*
X45700000Y-45150000D03*
X48200000Y-45000000D03*
X40640000Y-43180000D03*
X43100000Y-42850000D03*
X45700000Y-42600000D03*
X48200000Y-42450000D03*
D12*
X106500000Y-42600000D02*
X106500000Y-42400000D01*
X85175000Y-41825000D02*
X81750000Y-45250000D01*
X105925000Y-41825000D02*
X85175000Y-41825000D01*
X106500000Y-42400000D02*
X105925000Y-41825000D01*
X102450000Y-43000000D02*
X88570000Y-43000000D01*
X79980000Y-45730000D02*
X79500000Y-45250000D01*
X85840000Y-45730000D02*
X79980000Y-45730000D01*
X88570000Y-43000000D02*
X85840000Y-45730000D01*
X109200000Y-43500000D02*
X109250000Y-43450000D01*
X102450000Y-43000000D02*
X102450000Y-43050000D01*
X102450000Y-43050000D02*
X102450000Y-43450000D01*
X102450000Y-43450000D02*
X102500000Y-43500000D01*
X109250000Y-43450000D02*
X109250000Y-42950000D01*
X102500000Y-43500000D02*
X109200000Y-43500000D01*
X111750000Y-43930000D02*
X88270000Y-43930000D01*
X78160000Y-46160000D02*
X77250000Y-45250000D01*
X86040000Y-46160000D02*
X78160000Y-46160000D01*
X88270000Y-43930000D02*
X86040000Y-46160000D01*
X111760000Y-43180000D02*
X111750000Y-43190000D01*
X111750000Y-43190000D02*
X111750000Y-43930000D01*
X111750000Y-43930000D02*
X111750000Y-43950000D01*
X84000000Y-47500000D02*
X86200000Y-47500000D01*
X88700000Y-45000000D02*
X103950000Y-45000000D01*
X86200000Y-47500000D02*
X88700000Y-45000000D01*
X84000000Y-45250000D02*
X85500000Y-45250000D01*
X88300000Y-42450000D02*
X103950000Y-42450000D01*
X85500000Y-45250000D02*
X88300000Y-42450000D01*
X106500000Y-45150000D02*
X106500000Y-44775000D01*
X82375000Y-46875000D02*
X81750000Y-47500000D01*
X85975000Y-46875000D02*
X82375000Y-46875000D01*
X88500000Y-44350000D02*
X85975000Y-46875000D01*
X106075000Y-44350000D02*
X88500000Y-44350000D01*
X106500000Y-44775000D02*
X106075000Y-44350000D01*
X102450000Y-45500000D02*
X89000000Y-45500000D01*
X109200000Y-46050000D02*
X109250000Y-46000000D01*
X102450000Y-45500000D02*
X102450000Y-45600000D01*
X102450000Y-45600000D02*
X102450000Y-46000000D01*
X102450000Y-46000000D02*
X102500000Y-46050000D01*
X109250000Y-46000000D02*
X109250000Y-45500000D01*
X102500000Y-46050000D02*
X109200000Y-46050000D01*
X80100000Y-48100000D02*
X79500000Y-47500000D01*
X86400000Y-48100000D02*
X80100000Y-48100000D01*
X89000000Y-45500000D02*
X86400000Y-48100000D01*
X111750000Y-46500000D02*
X88725000Y-46500000D01*
X111760000Y-45730000D02*
X111750000Y-45740000D01*
X111750000Y-45740000D02*
X111750000Y-46500000D01*
X78200000Y-48450000D02*
X77250000Y-47500000D01*
X86775000Y-48450000D02*
X78200000Y-48450000D01*
X88725000Y-46500000D02*
X86775000Y-48450000D01*
X84000000Y-49750000D02*
X86800000Y-49750000D01*
X89050000Y-47500000D02*
X103950000Y-47500000D01*
X86800000Y-49750000D02*
X89050000Y-47500000D01*
X106500000Y-47650000D02*
X106300000Y-47650000D01*
X82450000Y-49050000D02*
X81750000Y-49750000D01*
X86950000Y-49050000D02*
X82450000Y-49050000D01*
X89150000Y-46850000D02*
X86950000Y-49050000D01*
X105500000Y-46850000D02*
X89150000Y-46850000D01*
X106300000Y-47650000D02*
X105500000Y-46850000D01*
X81750000Y-49750000D02*
X81750000Y-49600000D01*
X102500000Y-48550000D02*
X88700000Y-48550000D01*
X109200000Y-48550000D02*
X109250000Y-48500000D01*
X109250000Y-48500000D02*
X109250000Y-48000000D01*
X102500000Y-48550000D02*
X109200000Y-48550000D01*
X80199998Y-50449998D02*
X79500000Y-49750000D01*
X86800002Y-50449998D02*
X80199998Y-50449998D01*
X88700000Y-48550000D02*
X86800002Y-50449998D01*
X111750000Y-49000000D02*
X88825000Y-49000000D01*
X111760000Y-48230000D02*
X111750000Y-48240000D01*
X111750000Y-48240000D02*
X111750000Y-49000000D01*
X78200000Y-50700000D02*
X77250000Y-49750000D01*
X87125000Y-50700000D02*
X78200000Y-50700000D01*
X88825000Y-49000000D02*
X87125000Y-50700000D01*
X84000000Y-52000000D02*
X87175000Y-52000000D01*
X89125000Y-50050000D02*
X103950000Y-50050000D01*
X87175000Y-52000000D02*
X89125000Y-50050000D01*
X81750000Y-52000000D02*
X82050000Y-52000000D01*
X105700000Y-49400000D02*
X106500000Y-50200000D01*
X89150000Y-49400000D02*
X105700000Y-49400000D01*
X87100000Y-51450000D02*
X89150000Y-49400000D01*
X82600000Y-51450000D02*
X87100000Y-51450000D01*
X82050000Y-52000000D02*
X82600000Y-51450000D01*
X88625000Y-51100000D02*
X108700000Y-51100000D01*
X87235000Y-52490000D02*
X88625000Y-51100000D01*
X80040000Y-52490000D02*
X87235000Y-52490000D01*
X80040000Y-52490000D02*
X79550000Y-52000000D01*
X108700000Y-51100000D02*
X109250000Y-50550000D01*
X79500000Y-52000000D02*
X79550000Y-52000000D01*
X77250000Y-52000000D02*
X77350000Y-52000000D01*
X77350000Y-52000000D02*
X78300000Y-52950000D01*
X78300000Y-52950000D02*
X87425000Y-52950000D01*
X87425000Y-52950000D02*
X88825000Y-51550000D01*
X88825000Y-51550000D02*
X111750000Y-51550000D01*
X111750000Y-50790000D02*
X111760000Y-50780000D01*
X111750000Y-50790000D02*
X111750000Y-51550000D01*
X84000000Y-54250000D02*
X87500000Y-54250000D01*
X103950000Y-53475000D02*
X104250000Y-53175000D01*
X88275000Y-53475000D02*
X103950000Y-53475000D01*
X87500000Y-54250000D02*
X88275000Y-53475000D01*
X81750000Y-54250000D02*
X82350000Y-54250000D01*
X106125000Y-52450000D02*
X106750000Y-53075000D01*
X88728556Y-52450000D02*
X106125000Y-52450000D01*
X87578556Y-53600000D02*
X88728556Y-52450000D01*
X83000000Y-53600000D02*
X87578556Y-53600000D01*
X82350000Y-54250000D02*
X83000000Y-53600000D01*
X109250000Y-53100000D02*
X109250000Y-53200000D01*
X80125000Y-54875000D02*
X79500000Y-54250000D01*
X87500000Y-54875000D02*
X80125000Y-54875000D01*
X88600000Y-53775000D02*
X87500000Y-54875000D01*
X108675000Y-53775000D02*
X88600000Y-53775000D01*
X109250000Y-53200000D02*
X108675000Y-53775000D01*
X111750000Y-54075000D02*
X88800000Y-54075000D01*
X78250000Y-55250000D02*
X77250000Y-54250000D01*
X87625000Y-55250000D02*
X78250000Y-55250000D01*
X88800000Y-54075000D02*
X87625000Y-55250000D01*
X111750000Y-53340000D02*
X111750000Y-54075000D01*
X111750000Y-54075000D02*
X111750000Y-54100000D01*
X111750000Y-53340000D02*
X111760000Y-53330000D01*
X84000000Y-56500000D02*
X87550000Y-56500000D01*
X103825000Y-55900000D02*
X104150000Y-55575000D01*
X88150000Y-55900000D02*
X103825000Y-55900000D01*
X87550000Y-56500000D02*
X88150000Y-55900000D01*
X81750000Y-56500000D02*
X82400000Y-56500000D01*
X106050000Y-54900000D02*
X106650000Y-55500000D01*
X88600000Y-54900000D02*
X106050000Y-54900000D01*
X87650000Y-55850000D02*
X88600000Y-54900000D01*
X83050000Y-55850000D02*
X87650000Y-55850000D01*
X82400000Y-56500000D02*
X83050000Y-55850000D01*
X109200000Y-56200000D02*
X88350000Y-56200000D01*
X109250000Y-56150000D02*
X109250000Y-55650000D01*
X109200000Y-56200000D02*
X109250000Y-56150000D01*
X80125000Y-57050000D02*
X79575000Y-56500000D01*
X87500000Y-57050000D02*
X80125000Y-57050000D01*
X88350000Y-56200000D02*
X87500000Y-57050000D01*
X79575000Y-56500000D02*
X79500000Y-56500000D01*
X111750000Y-56650000D02*
X88625000Y-56650000D01*
X111750000Y-55890000D02*
X111750000Y-56650000D01*
X111760000Y-55880000D02*
X111750000Y-55890000D01*
X78150000Y-57400000D02*
X77250000Y-56500000D01*
X87875000Y-57400000D02*
X78150000Y-57400000D01*
X88625000Y-56650000D02*
X87875000Y-57400000D01*
X84000000Y-58750000D02*
X87625000Y-58750000D01*
X103800000Y-58425000D02*
X104125000Y-58100000D01*
X87950000Y-58425000D02*
X103800000Y-58425000D01*
X87625000Y-58750000D02*
X87950000Y-58425000D01*
X81750000Y-58750000D02*
X82425000Y-58750000D01*
X106100000Y-57375000D02*
X106700000Y-57975000D01*
X88675000Y-57375000D02*
X106100000Y-57375000D01*
X88125000Y-57925000D02*
X88675000Y-57375000D01*
X83250000Y-57925000D02*
X88125000Y-57925000D01*
X82425000Y-58750000D02*
X83250000Y-57925000D01*
X109200000Y-58700000D02*
X88150000Y-58700000D01*
X109250000Y-58650000D02*
X109250000Y-58150000D01*
X109200000Y-58700000D02*
X109250000Y-58650000D01*
X80175000Y-59425000D02*
X79500000Y-58750000D01*
X87425000Y-59425000D02*
X80175000Y-59425000D01*
X88150000Y-58700000D02*
X87425000Y-59425000D01*
X111750000Y-59150000D02*
X88250000Y-59150000D01*
X111750000Y-58390000D02*
X111750000Y-59150000D01*
X111760000Y-58380000D02*
X111750000Y-58390000D01*
X78200000Y-59700000D02*
X77250000Y-58750000D01*
X87700000Y-59700000D02*
X78200000Y-59700000D01*
X88250000Y-59150000D02*
X87700000Y-59700000D01*
X84000000Y-61000000D02*
X88200000Y-61000000D01*
X103675002Y-60999998D02*
X104150000Y-60525000D01*
X88200002Y-60999998D02*
X103675002Y-60999998D01*
X88200000Y-61000000D02*
X88200002Y-60999998D01*
X81750000Y-61000000D02*
X81925000Y-61000000D01*
X81925000Y-61000000D02*
X82525000Y-60400000D01*
X82525000Y-60400000D02*
X88225000Y-60400000D01*
X88225000Y-60400000D02*
X88900000Y-59725000D01*
X88900000Y-59725000D02*
X105925000Y-59725000D01*
X105925000Y-59725000D02*
X106650000Y-60450000D01*
X109200000Y-61250000D02*
X88450000Y-61250000D01*
X109200000Y-61250000D02*
X109250000Y-61200000D01*
X109250000Y-61200000D02*
X109250000Y-60700000D01*
X80150000Y-61650000D02*
X79500000Y-61000000D01*
X88050000Y-61650000D02*
X80150000Y-61650000D01*
X88450000Y-61250000D02*
X88050000Y-61650000D01*
X111750000Y-61700000D02*
X88425000Y-61700000D01*
X111760000Y-60930000D02*
X111750000Y-60940000D01*
X111750000Y-60940000D02*
X111750000Y-61700000D01*
X78200000Y-61950000D02*
X77250000Y-61000000D01*
X88175000Y-61950000D02*
X78200000Y-61950000D01*
X88425000Y-61700000D02*
X88175000Y-61950000D01*
X103950000Y-62700000D02*
X84550000Y-62700000D01*
X84550000Y-62700000D02*
X84000000Y-63250000D01*
X106500000Y-62850000D02*
X106450000Y-62850000D01*
X82700000Y-62300000D02*
X81750000Y-63250000D01*
X88300000Y-62300000D02*
X82700000Y-62300000D01*
X88600000Y-62000000D02*
X88300000Y-62300000D01*
X105600000Y-62000000D02*
X88600000Y-62000000D01*
X106450000Y-62850000D02*
X105600000Y-62000000D01*
X109250000Y-63200000D02*
X109250000Y-63450000D01*
X80050000Y-63800000D02*
X79500000Y-63250000D01*
X108900000Y-63800000D02*
X80050000Y-63800000D01*
X109250000Y-63450000D02*
X108900000Y-63800000D01*
X111760000Y-63430000D02*
X111760000Y-63740000D01*
X111750000Y-63440000D02*
X111760000Y-63430000D01*
X78100000Y-64100000D02*
X77250000Y-63250000D01*
X111400000Y-64100000D02*
X78100000Y-64100000D01*
X111760000Y-63740000D02*
X111400000Y-64100000D01*
X103950000Y-65300000D02*
X103950000Y-65250000D01*
X84400000Y-65100000D02*
X84000000Y-65500000D01*
X103800000Y-65100000D02*
X84400000Y-65100000D01*
X103950000Y-65250000D02*
X103800000Y-65100000D01*
X106500000Y-65450000D02*
X106500000Y-65400000D01*
X82650000Y-64600000D02*
X81750000Y-65500000D01*
X105700000Y-64600000D02*
X82650000Y-64600000D01*
X106500000Y-65400000D02*
X105700000Y-64600000D01*
X109250000Y-65800000D02*
X109250000Y-65950000D01*
X80000000Y-66000000D02*
X79500000Y-65500000D01*
X109200000Y-66000000D02*
X80000000Y-66000000D01*
X109250000Y-65950000D02*
X109200000Y-66000000D01*
X111760000Y-66030000D02*
X111760000Y-66240000D01*
X111750000Y-66040000D02*
X111760000Y-66030000D01*
X78150000Y-66400000D02*
X77250000Y-65500000D01*
X111600000Y-66400000D02*
X78150000Y-66400000D01*
X111760000Y-66240000D02*
X111600000Y-66400000D01*
X103950000Y-67850000D02*
X103750000Y-67850000D01*
X84250000Y-67500000D02*
X84000000Y-67750000D01*
X103400000Y-67500000D02*
X84250000Y-67500000D01*
X103750000Y-67850000D02*
X103400000Y-67500000D01*
X106500000Y-68000000D02*
X106500000Y-67800000D01*
X82600000Y-66900000D02*
X81750000Y-67750000D01*
X105600000Y-66900000D02*
X82600000Y-66900000D01*
X106500000Y-67800000D02*
X105600000Y-66900000D01*
X109250000Y-68350000D02*
X109050000Y-68350000D01*
X80150000Y-68400000D02*
X79500000Y-67750000D01*
X109000000Y-68400000D02*
X80150000Y-68400000D01*
X109050000Y-68350000D02*
X109000000Y-68400000D01*
X111760000Y-68580000D02*
X111720000Y-68580000D01*
X111750000Y-68590000D02*
X111760000Y-68580000D01*
X78400000Y-68900000D02*
X77250000Y-67750000D01*
X111400000Y-68900000D02*
X78400000Y-68900000D01*
X111720000Y-68580000D02*
X111400000Y-68900000D01*
X103950000Y-70400000D02*
X103950000Y-70350000D01*
X103600000Y-70000000D02*
X84000000Y-70000000D01*
X103950000Y-70350000D02*
X103600000Y-70000000D01*
X106500000Y-70550000D02*
X106500000Y-70200000D01*
X82550000Y-69200000D02*
X81750000Y-70000000D01*
X105500000Y-69200000D02*
X82550000Y-69200000D01*
X106500000Y-70200000D02*
X105500000Y-69200000D01*
X109250000Y-70900000D02*
X109000000Y-70900000D01*
X80000000Y-70500000D02*
X79500000Y-70000000D01*
X102000000Y-70500000D02*
X80000000Y-70500000D01*
X102500000Y-71000000D02*
X102000000Y-70500000D01*
X108900000Y-71000000D02*
X102500000Y-71000000D01*
X109000000Y-70900000D02*
X108900000Y-71000000D01*
X111760000Y-71130000D02*
X111760000Y-71240000D01*
X111750000Y-71140000D02*
X111760000Y-71130000D01*
X78050000Y-70800000D02*
X77250000Y-70000000D01*
X101700000Y-70800000D02*
X78050000Y-70800000D01*
X102300000Y-71400000D02*
X101700000Y-70800000D01*
X111600000Y-71400000D02*
X102300000Y-71400000D01*
X111760000Y-71240000D02*
X111600000Y-71400000D01*
X103950000Y-72950000D02*
X103950000Y-72850000D01*
X84350000Y-71900000D02*
X84000000Y-72250000D01*
X101700000Y-71900000D02*
X84350000Y-71900000D01*
X102200000Y-72400000D02*
X101700000Y-71900000D01*
X103500000Y-72400000D02*
X102200000Y-72400000D01*
X103950000Y-72850000D02*
X103500000Y-72400000D01*
X106500000Y-73100000D02*
X106500000Y-72700000D01*
X82800000Y-71200000D02*
X81750000Y-72250000D01*
X101600000Y-71200000D02*
X82800000Y-71200000D01*
X102400000Y-72000000D02*
X101600000Y-71200000D01*
X105800000Y-72000000D02*
X102400000Y-72000000D01*
X106500000Y-72700000D02*
X105800000Y-72000000D01*
X109250000Y-73450000D02*
X108900000Y-73800000D01*
X80050000Y-72800000D02*
X79500000Y-72250000D01*
X101800000Y-72800000D02*
X80050000Y-72800000D01*
X102800000Y-73800000D02*
X101800000Y-72800000D01*
X108900000Y-73800000D02*
X102800000Y-73800000D01*
X111760000Y-73680000D02*
X111760000Y-73940000D01*
X111750000Y-73690000D02*
X111760000Y-73680000D01*
X78100000Y-73100000D02*
X77250000Y-72250000D01*
X101400000Y-73100000D02*
X78100000Y-73100000D01*
X102400000Y-74100000D02*
X101400000Y-73100000D01*
X111600000Y-74100000D02*
X102400000Y-74100000D01*
X111760000Y-73940000D02*
X111600000Y-74100000D01*
X103950000Y-75450000D02*
X101750000Y-75450000D01*
X84400000Y-74100000D02*
X84000000Y-74500000D01*
X100400000Y-74100000D02*
X84400000Y-74100000D01*
X101750000Y-75450000D02*
X100400000Y-74100000D01*
X106500000Y-75600000D02*
X106500000Y-75300000D01*
X82750000Y-73500000D02*
X81750000Y-74500000D01*
X100600000Y-73500000D02*
X82750000Y-73500000D01*
X101700000Y-74600000D02*
X100600000Y-73500000D01*
X105800000Y-74600000D02*
X101700000Y-74600000D01*
X106500000Y-75300000D02*
X105800000Y-74600000D01*
X109250000Y-75950000D02*
X109150000Y-75950000D01*
X80100000Y-75100000D02*
X79500000Y-74500000D01*
X100000000Y-75100000D02*
X80100000Y-75100000D01*
X101100000Y-76200000D02*
X100000000Y-75100000D01*
X108900000Y-76200000D02*
X101100000Y-76200000D01*
X109150000Y-75950000D02*
X108900000Y-76200000D01*
X111760000Y-76180000D02*
X111420000Y-76180000D01*
X111750000Y-76190000D02*
X111760000Y-76180000D01*
X78150000Y-75400000D02*
X77250000Y-74500000D01*
X98300000Y-75400000D02*
X78150000Y-75400000D01*
X99400000Y-76500000D02*
X98300000Y-75400000D01*
X111100000Y-76500000D02*
X99400000Y-76500000D01*
X111420000Y-76180000D02*
X111100000Y-76500000D01*
X103950000Y-78000000D02*
X103500000Y-78000000D01*
X84450000Y-76300000D02*
X84000000Y-76750000D01*
X96400000Y-76300000D02*
X84450000Y-76300000D01*
X97700000Y-77600000D02*
X96400000Y-76300000D01*
X103100000Y-77600000D02*
X97700000Y-77600000D01*
X103500000Y-78000000D02*
X103100000Y-77600000D01*
X106500000Y-78150000D02*
X106450000Y-78150000D01*
X82700000Y-75800000D02*
X81750000Y-76750000D01*
X97000000Y-75800000D02*
X82700000Y-75800000D01*
X98200000Y-77000000D02*
X97000000Y-75800000D01*
X105300000Y-77000000D02*
X98200000Y-77000000D01*
X106450000Y-78150000D02*
X105300000Y-77000000D01*
X109250000Y-78500000D02*
X109200000Y-78500000D01*
X80050000Y-77300000D02*
X79500000Y-76750000D01*
X96500000Y-77300000D02*
X80050000Y-77300000D01*
X97900000Y-78700000D02*
X96500000Y-77300000D01*
X109000000Y-78700000D02*
X97900000Y-78700000D01*
X109200000Y-78500000D02*
X109000000Y-78700000D01*
X111760000Y-78730000D02*
X111760000Y-78740000D01*
X111750000Y-78740000D02*
X111760000Y-78730000D01*
X78300000Y-77800000D02*
X77250000Y-76750000D01*
X95700000Y-77800000D02*
X78300000Y-77800000D01*
X97200000Y-79300000D02*
X95700000Y-77800000D01*
X111200000Y-79300000D02*
X97200000Y-79300000D01*
X111760000Y-78740000D02*
X111200000Y-79300000D01*
X40690000Y-78780000D02*
X40690000Y-78790000D01*
X40700000Y-78790000D02*
X40690000Y-78780000D01*
X74150000Y-77600000D02*
X75000000Y-76750000D01*
X53600000Y-77600000D02*
X74150000Y-77600000D01*
X52100000Y-79100000D02*
X53600000Y-77600000D01*
X41000000Y-79100000D02*
X52100000Y-79100000D01*
X40690000Y-78790000D02*
X41000000Y-79100000D01*
X43150000Y-78450000D02*
X43250000Y-78450000D01*
X72200000Y-77300000D02*
X72750000Y-76750000D01*
X53200000Y-77300000D02*
X72200000Y-77300000D01*
X51700000Y-78800000D02*
X53200000Y-77300000D01*
X43600000Y-78800000D02*
X51700000Y-78800000D01*
X43250000Y-78450000D02*
X43600000Y-78800000D01*
X43100000Y-78500000D02*
X43150000Y-78450000D01*
X45750000Y-78200000D02*
X45750000Y-77950000D01*
X69650000Y-75900000D02*
X70500000Y-76750000D01*
X52600000Y-75900000D02*
X69650000Y-75900000D01*
X51400000Y-77100000D02*
X52600000Y-75900000D01*
X46600000Y-77100000D02*
X51400000Y-77100000D01*
X45750000Y-77950000D02*
X46600000Y-77100000D01*
X48250000Y-78050000D02*
X51350000Y-78050000D01*
X52650000Y-76750000D02*
X68250000Y-76750000D01*
X51350000Y-78050000D02*
X52650000Y-76750000D01*
X40690000Y-76230000D02*
X40690000Y-76290000D01*
X40700000Y-76240000D02*
X40690000Y-76230000D01*
X74200000Y-75300000D02*
X75000000Y-74500000D01*
X52400000Y-75300000D02*
X74200000Y-75300000D01*
X51100000Y-76600000D02*
X52400000Y-75300000D01*
X41000000Y-76600000D02*
X51100000Y-76600000D01*
X40690000Y-76290000D02*
X41000000Y-76600000D01*
X43150000Y-75900000D02*
X43300000Y-75900000D01*
X72250000Y-75000000D02*
X72750000Y-74500000D01*
X52000000Y-75000000D02*
X72250000Y-75000000D01*
X50800000Y-76200000D02*
X52000000Y-75000000D01*
X43600000Y-76200000D02*
X50800000Y-76200000D01*
X43300000Y-75900000D02*
X43600000Y-76200000D01*
X43100000Y-75950000D02*
X43150000Y-75900000D01*
X45750000Y-75650000D02*
X45750000Y-75550000D01*
X69500000Y-73500000D02*
X70500000Y-74500000D01*
X51500000Y-73500000D02*
X69500000Y-73500000D01*
X50500000Y-74500000D02*
X51500000Y-73500000D01*
X46800000Y-74500000D02*
X50500000Y-74500000D01*
X45750000Y-75550000D02*
X46800000Y-74500000D01*
X48250000Y-75500000D02*
X50500000Y-75500000D01*
X51500000Y-74500000D02*
X68250000Y-74500000D01*
X50500000Y-75500000D02*
X51500000Y-74500000D01*
X40690000Y-73680000D02*
X40690000Y-73690000D01*
X40700000Y-73690000D02*
X40690000Y-73680000D01*
X74150000Y-73100000D02*
X75000000Y-72250000D01*
X51300000Y-73100000D02*
X74150000Y-73100000D01*
X50400000Y-74000000D02*
X51300000Y-73100000D01*
X41000000Y-74000000D02*
X50400000Y-74000000D01*
X40690000Y-73690000D02*
X41000000Y-74000000D01*
X43150000Y-73350000D02*
X43150000Y-73450000D01*
X72200000Y-72800000D02*
X72750000Y-72250000D01*
X51000000Y-72800000D02*
X72200000Y-72800000D01*
X50200000Y-73600000D02*
X51000000Y-72800000D01*
X43300000Y-73600000D02*
X50200000Y-73600000D01*
X43150000Y-73450000D02*
X43300000Y-73600000D01*
X43100000Y-73400000D02*
X43150000Y-73350000D01*
X45750000Y-73100000D02*
X45750000Y-72750000D01*
X69850000Y-71600000D02*
X70500000Y-72250000D01*
X46900000Y-71600000D02*
X69850000Y-71600000D01*
X45750000Y-72750000D02*
X46900000Y-71600000D01*
X48250000Y-72950000D02*
X49000000Y-72200000D01*
X49000000Y-72200000D02*
X68200000Y-72200000D01*
X68200000Y-72200000D02*
X68250000Y-72250000D01*
X40640000Y-71130000D02*
X40730000Y-71130000D01*
X40650000Y-71140000D02*
X40640000Y-71130000D01*
X74200000Y-70800000D02*
X75000000Y-70000000D01*
X49553556Y-70800000D02*
X74200000Y-70800000D01*
X49053556Y-71300000D02*
X49553556Y-70800000D01*
X40900000Y-71300000D02*
X49053556Y-71300000D01*
X40730000Y-71130000D02*
X40900000Y-71300000D01*
X43100000Y-70800000D02*
X43200000Y-70800000D01*
X72250000Y-70500000D02*
X72750000Y-70000000D01*
X49500000Y-70500000D02*
X72250000Y-70500000D01*
X49000000Y-71000000D02*
X49500000Y-70500000D01*
X43400000Y-71000000D02*
X49000000Y-71000000D01*
X43200000Y-70800000D02*
X43400000Y-71000000D01*
X43050000Y-70850000D02*
X43100000Y-70800000D01*
X45700000Y-70550000D02*
X45700000Y-70300000D01*
X69500000Y-69000000D02*
X70500000Y-70000000D01*
X47000000Y-69000000D02*
X69500000Y-69000000D01*
X45700000Y-70300000D02*
X47000000Y-69000000D01*
X48200000Y-70400000D02*
X48200000Y-70000000D01*
X67550000Y-69300000D02*
X68250000Y-70000000D01*
X48900000Y-69300000D02*
X67550000Y-69300000D01*
X48200000Y-70000000D02*
X48900000Y-69300000D01*
X40640000Y-68580000D02*
X40640000Y-68640000D01*
X40650000Y-68590000D02*
X40640000Y-68580000D01*
X74050000Y-68700000D02*
X75000000Y-67750000D01*
X40700000Y-68700000D02*
X74050000Y-68700000D01*
X40640000Y-68640000D02*
X40700000Y-68700000D01*
X43100000Y-68250000D02*
X43150000Y-68250000D01*
X72100000Y-68400000D02*
X72750000Y-67750000D01*
X43300000Y-68400000D02*
X72100000Y-68400000D01*
X43150000Y-68250000D02*
X43300000Y-68400000D01*
X43050000Y-68300000D02*
X43100000Y-68250000D01*
X45700000Y-68000000D02*
X45700000Y-67700000D01*
X69350000Y-66600000D02*
X70500000Y-67750000D01*
X46800000Y-66600000D02*
X69350000Y-66600000D01*
X45700000Y-67700000D02*
X46800000Y-66600000D01*
X48200000Y-67850000D02*
X48200000Y-67700000D01*
X67400000Y-66900000D02*
X68250000Y-67750000D01*
X49000000Y-66900000D02*
X67400000Y-66900000D01*
X48200000Y-67700000D02*
X49000000Y-66900000D01*
X40640000Y-66030000D02*
X40640000Y-66140000D01*
X40650000Y-66040000D02*
X40640000Y-66030000D01*
X74200000Y-66300000D02*
X75000000Y-65500000D01*
X40800000Y-66300000D02*
X74200000Y-66300000D01*
X40640000Y-66140000D02*
X40800000Y-66300000D01*
X43100000Y-65700000D02*
X43400000Y-66000000D01*
X72250000Y-66000000D02*
X72750000Y-65500000D01*
X43400000Y-66000000D02*
X72250000Y-66000000D01*
X43050000Y-65750000D02*
X43100000Y-65700000D01*
X45700000Y-65450000D02*
X45700000Y-65400000D01*
X69400000Y-64400000D02*
X70500000Y-65500000D01*
X46700000Y-64400000D02*
X69400000Y-64400000D01*
X45700000Y-65400000D02*
X46700000Y-64400000D01*
X48200000Y-65300000D02*
X68050000Y-65300000D01*
X68050000Y-65300000D02*
X68250000Y-65500000D01*
X40640000Y-63480000D02*
X40680000Y-63480000D01*
X40650000Y-63490000D02*
X40640000Y-63480000D01*
X74150000Y-64100000D02*
X75000000Y-63250000D01*
X41300000Y-64100000D02*
X74150000Y-64100000D01*
X40680000Y-63480000D02*
X41300000Y-64100000D01*
X43100000Y-63150000D02*
X43250000Y-63150000D01*
X72200000Y-63800000D02*
X72750000Y-63250000D01*
X43900000Y-63800000D02*
X72200000Y-63800000D01*
X43250000Y-63150000D02*
X43900000Y-63800000D01*
X43050000Y-63200000D02*
X43100000Y-63150000D01*
X45700000Y-62900000D02*
X46500000Y-62100000D01*
X69350000Y-62100000D02*
X70500000Y-63250000D01*
X46500000Y-62100000D02*
X69350000Y-62100000D01*
X48200000Y-62750000D02*
X67750000Y-62750000D01*
X67750000Y-62750000D02*
X68250000Y-63250000D01*
X40690000Y-60980000D02*
X40690000Y-60990000D01*
X40700000Y-60990000D02*
X40690000Y-60980000D01*
X74200000Y-61800000D02*
X75000000Y-61000000D01*
X41500000Y-61800000D02*
X74200000Y-61800000D01*
X40690000Y-60990000D02*
X41500000Y-61800000D01*
X43150000Y-60650000D02*
X43550000Y-60650000D01*
X72250000Y-61500000D02*
X72750000Y-61000000D01*
X44400000Y-61500000D02*
X72250000Y-61500000D01*
X43550000Y-60650000D02*
X44400000Y-61500000D01*
X43100000Y-60700000D02*
X43150000Y-60650000D01*
X45750000Y-60400000D02*
X45850002Y-60400000D01*
X69350002Y-59850002D02*
X70500000Y-61000000D01*
X46400000Y-59850002D02*
X69350002Y-59850002D01*
X45850002Y-60400000D02*
X46400000Y-59850002D01*
X48250000Y-60250000D02*
X48250000Y-60550000D01*
X48700000Y-61000000D02*
X68250000Y-61000000D01*
X48250000Y-60550000D02*
X48700000Y-61000000D01*
X40690000Y-58430000D02*
X40690000Y-58590000D01*
X40700000Y-58440000D02*
X40690000Y-58430000D01*
X74150000Y-59600000D02*
X75000000Y-58750000D01*
X41700000Y-59600000D02*
X74150000Y-59600000D01*
X40690000Y-58590000D02*
X41700000Y-59600000D01*
X43150000Y-58100000D02*
X43300000Y-58100000D01*
X72200000Y-59300000D02*
X72750000Y-58750000D01*
X44500000Y-59300000D02*
X72200000Y-59300000D01*
X43300000Y-58100000D02*
X44500000Y-59300000D01*
X43100000Y-58150000D02*
X43150000Y-58100000D01*
X45750000Y-57850000D02*
X45750000Y-57650000D01*
X69350000Y-57600000D02*
X70500000Y-58750000D01*
X63400000Y-57600000D02*
X69350000Y-57600000D01*
X62900000Y-57100000D02*
X63400000Y-57600000D01*
X46300000Y-57100000D02*
X62900000Y-57100000D01*
X45750000Y-57650000D02*
X46300000Y-57100000D01*
X48250000Y-57700000D02*
X62900000Y-57700000D01*
X63950000Y-58750000D02*
X68250000Y-58750000D01*
X62900000Y-57700000D02*
X63950000Y-58750000D01*
X40690000Y-55880000D02*
X40690000Y-56090000D01*
X40700000Y-55890000D02*
X40690000Y-55880000D01*
X74200000Y-57300000D02*
X75000000Y-56500000D01*
X63600000Y-57300000D02*
X74200000Y-57300000D01*
X63000000Y-56700000D02*
X63600000Y-57300000D01*
X41300000Y-56700000D02*
X63000000Y-56700000D01*
X40690000Y-56090000D02*
X41300000Y-56700000D01*
X43150000Y-55550000D02*
X43450000Y-55550000D01*
X72250000Y-57000000D02*
X72750000Y-56500000D01*
X63900000Y-57000000D02*
X72250000Y-57000000D01*
X62900000Y-56000000D02*
X63900000Y-57000000D01*
X43900000Y-56000000D02*
X62900000Y-56000000D01*
X43450000Y-55550000D02*
X43900000Y-56000000D01*
X43100000Y-55600000D02*
X43150000Y-55550000D01*
X45750000Y-55300000D02*
X45750000Y-55150000D01*
X69400000Y-55400000D02*
X70500000Y-56500000D01*
X63700000Y-55400000D02*
X69400000Y-55400000D01*
X62600000Y-54300000D02*
X63700000Y-55400000D01*
X46600000Y-54300000D02*
X62600000Y-54300000D01*
X45750000Y-55150000D02*
X46600000Y-54300000D01*
X48250000Y-55150000D02*
X62650000Y-55150000D01*
X64000000Y-56500000D02*
X68250000Y-56500000D01*
X62650000Y-55150000D02*
X64000000Y-56500000D01*
X40690000Y-53330000D02*
X40690000Y-53490000D01*
X40700000Y-53340000D02*
X40690000Y-53330000D01*
X74199998Y-55050002D02*
X75000000Y-54250000D01*
X64050002Y-55050002D02*
X74199998Y-55050002D01*
X62900000Y-53900000D02*
X64050002Y-55050002D01*
X41100000Y-53900000D02*
X62900000Y-53900000D01*
X40690000Y-53490000D02*
X41100000Y-53900000D01*
X43150000Y-53000000D02*
X43200000Y-53000000D01*
X72200000Y-54800000D02*
X72750000Y-54250000D01*
X64500000Y-54800000D02*
X72200000Y-54800000D01*
X62900000Y-53200000D02*
X64500000Y-54800000D01*
X43400000Y-53200000D02*
X62900000Y-53200000D01*
X43200000Y-53000000D02*
X43400000Y-53200000D01*
X43100000Y-53050000D02*
X43150000Y-53000000D01*
X45750000Y-52750000D02*
X45750000Y-52450000D01*
X69450000Y-53200000D02*
X70500000Y-54250000D01*
X64200000Y-53200000D02*
X69450000Y-53200000D01*
X63000000Y-52000000D02*
X64200000Y-53200000D01*
X46200000Y-52000000D02*
X63000000Y-52000000D01*
X45750000Y-52450000D02*
X46200000Y-52000000D01*
X48250000Y-52600000D02*
X62900000Y-52600000D01*
X64550000Y-54250000D02*
X68250000Y-54250000D01*
X62900000Y-52600000D02*
X64550000Y-54250000D01*
X40640000Y-50830000D02*
X40640000Y-50940000D01*
X40650000Y-50840000D02*
X40640000Y-50830000D01*
X74200000Y-52800000D02*
X75000000Y-52000000D01*
X64600000Y-52800000D02*
X74200000Y-52800000D01*
X63300000Y-51500000D02*
X64600000Y-52800000D01*
X41200000Y-51500000D02*
X63300000Y-51500000D01*
X40640000Y-50940000D02*
X41200000Y-51500000D01*
X43100000Y-50500000D02*
X43300000Y-50500000D01*
X72250000Y-52500000D02*
X72750000Y-52000000D01*
X64900000Y-52500000D02*
X72250000Y-52500000D01*
X63500000Y-51100000D02*
X64900000Y-52500000D01*
X43900000Y-51100000D02*
X63500000Y-51100000D01*
X43300000Y-50500000D02*
X43900000Y-51100000D01*
X43050000Y-50550000D02*
X43100000Y-50500000D01*
X45700000Y-50250000D02*
X45700000Y-49800000D01*
X69500000Y-51000000D02*
X70500000Y-52000000D01*
X64900000Y-51000000D02*
X69500000Y-51000000D01*
X63000000Y-49100000D02*
X64900000Y-51000000D01*
X46400000Y-49100000D02*
X63000000Y-49100000D01*
X45700000Y-49800000D02*
X46400000Y-49100000D01*
X48200000Y-50100000D02*
X63300000Y-50100000D01*
X65200000Y-52000000D02*
X68250000Y-52000000D01*
X63300000Y-50100000D02*
X65200000Y-52000000D01*
X40640000Y-48280000D02*
X40680000Y-48280000D01*
X40650000Y-48290000D02*
X40640000Y-48280000D01*
X74150000Y-50600000D02*
X75000000Y-49750000D01*
X65400000Y-50600000D02*
X74150000Y-50600000D01*
X63500000Y-48700000D02*
X65400000Y-50600000D01*
X41100000Y-48700000D02*
X63500000Y-48700000D01*
X40680000Y-48280000D02*
X41100000Y-48700000D01*
X43100000Y-47950000D02*
X43150000Y-47950000D01*
X72200000Y-50300000D02*
X72750000Y-49750000D01*
X65800000Y-50300000D02*
X72200000Y-50300000D01*
X63800000Y-48300000D02*
X65800000Y-50300000D01*
X43500000Y-48300000D02*
X63800000Y-48300000D01*
X43150000Y-47950000D02*
X43500000Y-48300000D01*
X43050000Y-48000000D02*
X43100000Y-47950000D01*
X45700000Y-47700000D02*
X45700000Y-47500000D01*
X69350000Y-48600000D02*
X70500000Y-49750000D01*
X65700000Y-48600000D02*
X69350000Y-48600000D01*
X63600000Y-46500000D02*
X65700000Y-48600000D01*
X46700000Y-46500000D02*
X63600000Y-46500000D01*
X45700000Y-47500000D02*
X46700000Y-46500000D01*
X48200000Y-47550000D02*
X63950000Y-47550000D01*
X67800000Y-49300000D02*
X68250000Y-49750000D01*
X65700000Y-49300000D02*
X67800000Y-49300000D01*
X63950000Y-47550000D02*
X65700000Y-49300000D01*
X40640000Y-45730000D02*
X40640000Y-45740000D01*
X40650000Y-45740000D02*
X40640000Y-45730000D01*
X74200000Y-48300000D02*
X75000000Y-47500000D01*
X66100000Y-48300000D02*
X74200000Y-48300000D01*
X63800000Y-46000000D02*
X66100000Y-48300000D01*
X40900000Y-46000000D02*
X63800000Y-46000000D01*
X40640000Y-45740000D02*
X40900000Y-46000000D01*
X43100000Y-45400000D02*
X43400000Y-45400000D01*
X72250000Y-48000000D02*
X72750000Y-47500000D01*
X66300000Y-48000000D02*
X72250000Y-48000000D01*
X63900000Y-45600000D02*
X66300000Y-48000000D01*
X43600000Y-45600000D02*
X63900000Y-45600000D01*
X43400000Y-45400000D02*
X43600000Y-45600000D01*
X43050000Y-45450000D02*
X43100000Y-45400000D01*
X45700000Y-45150000D02*
X45700000Y-45000000D01*
X69400000Y-46400000D02*
X70500000Y-47500000D01*
X66500000Y-46400000D02*
X69400000Y-46400000D01*
X63900000Y-43800000D02*
X66500000Y-46400000D01*
X46900000Y-43800000D02*
X63900000Y-43800000D01*
X45700000Y-45000000D02*
X46900000Y-43800000D01*
X48200000Y-45000000D02*
X64200000Y-45000000D01*
X66700000Y-47500000D02*
X68250000Y-47500000D01*
X64200000Y-45000000D02*
X66700000Y-47500000D01*
X40640000Y-43180000D02*
X40680000Y-43180000D01*
X40650000Y-43190000D02*
X40640000Y-43180000D01*
X74150000Y-46100000D02*
X75000000Y-45250000D01*
X67200000Y-46100000D02*
X74150000Y-46100000D01*
X64600000Y-43500000D02*
X67200000Y-46100000D01*
X41000000Y-43500000D02*
X64600000Y-43500000D01*
X40680000Y-43180000D02*
X41000000Y-43500000D01*
X43100000Y-42850000D02*
X43450000Y-42850000D01*
X72200000Y-45800000D02*
X72750000Y-45250000D01*
X67500000Y-45800000D02*
X72200000Y-45800000D01*
X64700000Y-43000000D02*
X67500000Y-45800000D01*
X43600000Y-43000000D02*
X64700000Y-43000000D01*
X43450000Y-42850000D02*
X43600000Y-43000000D01*
X43050000Y-42900000D02*
X43100000Y-42850000D01*
X45700000Y-42600000D02*
X45700000Y-42500000D01*
X67250000Y-42000000D02*
X70500000Y-45250000D01*
X46200000Y-42000000D02*
X67250000Y-42000000D01*
X45700000Y-42500000D02*
X46200000Y-42000000D01*
X48200000Y-42450000D02*
X65450000Y-42450000D01*
X65450000Y-42450000D02*
X68250000Y-45250000D01*
M02*
