M48
;DRILL file {KiCad 4.0.4-stable} date 11/30/16 02:15:26
;FORMAT={-:-/ absolute / inch / decimal}
FMAT,2
INCH,TZ
T1C0.006
%
G90
G05
M72
T1
X1.6Y-1.7
X1.6Y-1.8004
X1.6Y-1.9008
X1.6Y-2.0012
X1.6Y-2.4992
X1.6Y-2.5996
X1.6Y-2.7
X1.6Y-2.8004
X1.602Y-2.0996
X1.602Y-2.2
X1.602Y-2.3004
X1.602Y-2.4008
X1.602Y-2.9008
X1.602Y-3.0012
X1.602Y-3.1016
X1.6969Y-1.687
X1.6969Y-1.7874
X1.6969Y-1.8878
X1.6969Y-1.9882
X1.6969Y-2.4862
X1.6969Y-2.5866
X1.6969Y-2.687
X1.6969Y-2.7874
X1.6988Y-2.0866
X1.6988Y-2.187
X1.6988Y-2.2874
X1.6988Y-2.3878
X1.6988Y-2.8878
X1.6988Y-2.9882
X1.6988Y-3.0886
X1.7992Y-1.6772
X1.7992Y-1.7776
X1.7992Y-1.878
X1.7992Y-1.9783
X1.7992Y-2.4764
X1.7992Y-2.5768
X1.7992Y-2.6772
X1.7992Y-2.7776
X1.8012Y-2.0768
X1.8012Y-2.1772
X1.8012Y-2.2776
X1.8012Y-2.378
X1.8012Y-2.878
X1.8012Y-2.9783
X1.8012Y-3.0787
X1.8976Y-1.6713
X1.8976Y-1.7717
X1.8976Y-1.872
X1.8976Y-1.9724
X1.8976Y-2.4705
X1.8976Y-2.5709
X1.8976Y-2.6713
X1.8976Y-2.7717
X1.8996Y-2.0709
X1.8996Y-2.1713
X1.8996Y-2.2717
X1.8996Y-2.372
X1.8996Y-2.872
X1.8996Y-2.9724
X1.8996Y-3.0728
X2.687Y-1.7815
X2.687Y-1.8701
X2.687Y-1.9587
X2.687Y-2.0472
X2.687Y-2.1358
X2.687Y-2.2244
X2.687Y-2.313
X2.687Y-2.4016
X2.687Y-2.4902
X2.687Y-2.5787
X2.687Y-2.6673
X2.687Y-2.7559
X2.687Y-2.8445
X2.687Y-2.9331
X2.687Y-3.0217
X2.7756Y-1.7815
X2.7756Y-1.8701
X2.7756Y-1.9587
X2.7756Y-2.0472
X2.7756Y-2.1358
X2.7756Y-2.2244
X2.7756Y-2.313
X2.7756Y-2.4016
X2.7756Y-2.4902
X2.7756Y-2.5787
X2.7756Y-2.6673
X2.7756Y-2.7559
X2.7756Y-2.8445
X2.7756Y-2.9331
X2.7756Y-3.0217
X2.8642Y-1.7815
X2.8642Y-1.8701
X2.8642Y-1.9587
X2.8642Y-2.0472
X2.8642Y-2.1358
X2.8642Y-2.2244
X2.8642Y-2.313
X2.8642Y-2.4016
X2.8642Y-2.4902
X2.8642Y-2.5787
X2.8642Y-2.6673
X2.8642Y-2.7559
X2.8642Y-2.8445
X2.8642Y-2.9331
X2.8642Y-3.0217
X2.9528Y-1.7815
X2.9528Y-1.8701
X2.9528Y-1.9587
X2.9528Y-2.0472
X2.9528Y-2.1358
X2.9528Y-2.2244
X2.9528Y-2.313
X2.9528Y-2.4016
X2.9528Y-2.4902
X2.9528Y-2.5787
X2.9528Y-2.6673
X2.9528Y-2.7559
X2.9528Y-2.8445
X2.9528Y-2.9331
X2.9528Y-3.0217
X3.0413Y-1.7815
X3.0413Y-1.8701
X3.0413Y-1.9587
X3.0413Y-2.0472
X3.0413Y-2.1358
X3.0413Y-2.2244
X3.0413Y-2.313
X3.0413Y-2.4016
X3.0413Y-2.4902
X3.0413Y-2.5787
X3.0413Y-2.6673
X3.0413Y-2.7559
X3.0413Y-2.8445
X3.0413Y-2.9331
X3.0413Y-3.0217
X3.1299Y-1.7815
X3.1299Y-1.8701
X3.1299Y-1.9587
X3.1299Y-2.0472
X3.1299Y-2.1358
X3.1299Y-2.2244
X3.1299Y-2.313
X3.1299Y-2.4016
X3.1299Y-2.4902
X3.1299Y-2.5787
X3.1299Y-2.6673
X3.1299Y-2.7559
X3.1299Y-2.8445
X3.1299Y-2.9331
X3.1299Y-3.0217
X3.2185Y-1.7815
X3.2185Y-1.8701
X3.2185Y-1.9587
X3.2185Y-2.0472
X3.2185Y-2.1358
X3.2185Y-2.2244
X3.2185Y-2.313
X3.2185Y-2.4016
X3.2185Y-2.4902
X3.2185Y-2.5787
X3.2185Y-2.6673
X3.2185Y-2.7559
X3.2185Y-2.8445
X3.2185Y-2.9331
X3.2185Y-3.0217
X3.3071Y-1.7815
X3.3071Y-1.8701
X3.3071Y-1.9587
X3.3071Y-2.0472
X3.3071Y-2.1358
X3.3071Y-2.2244
X3.3071Y-2.313
X3.3071Y-2.4016
X3.3071Y-2.4902
X3.3071Y-2.5787
X3.3071Y-2.6673
X3.3071Y-2.7559
X3.3071Y-2.8445
X3.3071Y-2.9331
X3.3071Y-3.0217
X4.0925Y-1.6713
X4.0925Y-1.7717
X4.0925Y-1.8701
X4.0925Y-1.9705
X4.0925Y-2.4685
X4.0925Y-2.5709
X4.0925Y-2.6713
X4.0925Y-2.7717
X4.0925Y-2.872
X4.0925Y-2.9705
X4.0925Y-3.0709
X4.0994Y-2.2874
X4.1004Y-2.188
X4.1004Y-2.3829
X4.1043Y-2.0935
X4.1929Y-1.6772
X4.1929Y-1.7776
X4.1929Y-1.876
X4.1929Y-1.9764
X4.1929Y-2.4744
X4.1929Y-2.5768
X4.1929Y-2.6772
X4.1929Y-2.7776
X4.1929Y-2.878
X4.1929Y-2.9764
X4.1929Y-3.0768
X4.1988Y-2.185
X4.1988Y-2.3799
X4.2008Y-2.2825
X4.2028Y-2.0896
X4.3012Y-1.6909
X4.3012Y-1.7913
X4.3012Y-1.8898
X4.3012Y-1.9902
X4.3012Y-2.0906
X4.3012Y-2.1909
X4.3012Y-2.2894
X4.3012Y-2.3898
X4.3012Y-2.4882
X4.3012Y-2.5906
X4.3012Y-2.6909
X4.3012Y-2.7913
X4.3012Y-2.8917
X4.3012Y-2.9902
X4.3012Y-3.0906
X4.4Y-1.7
X4.4Y-1.8004
X4.4Y-1.8988
X4.4Y-1.9992
X4.4Y-2.0996
X4.4Y-2.2
X4.4Y-2.2984
X4.4Y-2.3988
X4.4Y-2.4972
X4.4Y-2.5996
X4.4Y-2.7
X4.4Y-2.8004
X4.4Y-2.9008
X4.4Y-2.9992
X4.4Y-3.0996
T0
M30
