G04 #@! TF.FileFunction,Soldermask,Top*
%FSLAX46Y46*%
G04 Gerber Fmt 4.6, Leading zero omitted, Abs format (unit mm)*
G04 Created by KiCad (PCBNEW 4.0.4-stable) date 11/30/16 02:15:23*
%MOMM*%
%LPD*%
G01*
G04 APERTURE LIST*
%ADD10C,0.150000*%
%ADD11R,2.407920X2.407920*%
%ADD12C,0.808000*%
G04 APERTURE END LIST*
D10*
D11*
X104140000Y-43180000D03*
X106680000Y-43180000D03*
X109220000Y-43180000D03*
X111760000Y-43180000D03*
X104140000Y-45720000D03*
X106680000Y-45720000D03*
X109220000Y-45720000D03*
X111760000Y-45720000D03*
X104140000Y-48260000D03*
X106680000Y-48260000D03*
X109220000Y-48260000D03*
X111760000Y-48260000D03*
X104140000Y-50800000D03*
X106680000Y-50800000D03*
X109220000Y-50800000D03*
X111760000Y-50800000D03*
X104140000Y-53340000D03*
X106680000Y-53340000D03*
X109220000Y-53340000D03*
X111760000Y-53340000D03*
X104140000Y-55880000D03*
X106680000Y-55880000D03*
X109220000Y-55880000D03*
X111760000Y-55880000D03*
X104140000Y-58420000D03*
X106680000Y-58420000D03*
X109220000Y-58420000D03*
X111760000Y-58420000D03*
X104140000Y-60960000D03*
X106680000Y-60960000D03*
X109220000Y-60960000D03*
X111760000Y-60960000D03*
X104140000Y-63500000D03*
X106680000Y-63500000D03*
X109220000Y-63500000D03*
X111760000Y-63500000D03*
X104140000Y-66040000D03*
X106680000Y-66040000D03*
X109220000Y-66040000D03*
X111760000Y-66040000D03*
X104140000Y-68580000D03*
X106680000Y-68580000D03*
X109220000Y-68580000D03*
X111760000Y-68580000D03*
X104140000Y-71120000D03*
X106680000Y-71120000D03*
X109220000Y-71120000D03*
X111760000Y-71120000D03*
X104140000Y-73660000D03*
X106680000Y-73660000D03*
X109220000Y-73660000D03*
X111760000Y-73660000D03*
X104140000Y-76200000D03*
X106680000Y-76200000D03*
X109220000Y-76200000D03*
X111760000Y-76200000D03*
X104140000Y-78740000D03*
X106680000Y-78740000D03*
X109220000Y-78740000D03*
X111760000Y-78740000D03*
X40640000Y-78740000D03*
X43180000Y-78740000D03*
X45720000Y-78740000D03*
X48260000Y-78740000D03*
X40640000Y-76200000D03*
X43180000Y-76200000D03*
X45720000Y-76200000D03*
X48260000Y-76200000D03*
X40640000Y-73660000D03*
X43180000Y-73660000D03*
X45720000Y-73660000D03*
X48260000Y-73660000D03*
X40640000Y-71120000D03*
X43180000Y-71120000D03*
X45720000Y-71120000D03*
X48260000Y-71120000D03*
X40640000Y-68580000D03*
X43180000Y-68580000D03*
X45720000Y-68580000D03*
X48260000Y-68580000D03*
X40640000Y-66040000D03*
X43180000Y-66040000D03*
X45720000Y-66040000D03*
X48260000Y-66040000D03*
X40640000Y-63500000D03*
X43180000Y-63500000D03*
X45720000Y-63500000D03*
X48260000Y-63500000D03*
X40640000Y-60960000D03*
X43180000Y-60960000D03*
X45720000Y-60960000D03*
X48260000Y-60960000D03*
X40640000Y-58420000D03*
X43180000Y-58420000D03*
X45720000Y-58420000D03*
X48260000Y-58420000D03*
X40640000Y-55880000D03*
X43180000Y-55880000D03*
X45720000Y-55880000D03*
X48260000Y-55880000D03*
X40640000Y-53340000D03*
X43180000Y-53340000D03*
X45720000Y-53340000D03*
X48260000Y-53340000D03*
X40640000Y-50800000D03*
X43180000Y-50800000D03*
X45720000Y-50800000D03*
X48260000Y-50800000D03*
X40640000Y-48260000D03*
X43180000Y-48260000D03*
X45720000Y-48260000D03*
X48260000Y-48260000D03*
X40640000Y-45720000D03*
X43180000Y-45720000D03*
X45720000Y-45720000D03*
X48260000Y-45720000D03*
X40640000Y-43180000D03*
X43180000Y-43180000D03*
X45720000Y-43180000D03*
X48260000Y-43180000D03*
D12*
X84000000Y-45250000D03*
X81750000Y-45250000D03*
X79500000Y-45250000D03*
X77250000Y-45250000D03*
X84000000Y-47500000D03*
X81750000Y-47500000D03*
X79500000Y-47500000D03*
X77250000Y-47500000D03*
X84000000Y-49750000D03*
X81750000Y-49750000D03*
X79500000Y-49750000D03*
X77250000Y-49750000D03*
X84000000Y-52000000D03*
X81750000Y-52000000D03*
X79500000Y-52000000D03*
X77250000Y-52000000D03*
X84000000Y-54250000D03*
X81750000Y-54250000D03*
X79500000Y-54250000D03*
X77250000Y-54250000D03*
X84000000Y-56500000D03*
X81750000Y-56500000D03*
X79500000Y-56500000D03*
X77250000Y-56500000D03*
X84000000Y-58750000D03*
X81750000Y-58750000D03*
X79500000Y-58750000D03*
X77250000Y-58750000D03*
X84000000Y-61000000D03*
X81750000Y-61000000D03*
X79500000Y-61000000D03*
X77250000Y-61000000D03*
X84000000Y-63250000D03*
X81750000Y-63250000D03*
X79500000Y-63250000D03*
X77250000Y-63250000D03*
X84000000Y-65500000D03*
X81750000Y-65500000D03*
X79500000Y-65500000D03*
X77250000Y-65500000D03*
X84000000Y-67750000D03*
X81750000Y-67750000D03*
X79500000Y-67750000D03*
X77250000Y-67750000D03*
X84000000Y-70000000D03*
X81750000Y-70000000D03*
X79500000Y-70000000D03*
X77250000Y-70000000D03*
X84000000Y-72250000D03*
X81750000Y-72250000D03*
X79500000Y-72250000D03*
X77250000Y-72250000D03*
X84000000Y-74500000D03*
X81750000Y-74500000D03*
X79500000Y-74500000D03*
X77250000Y-74500000D03*
X84000000Y-76750000D03*
X81750000Y-76750000D03*
X79500000Y-76750000D03*
X77250000Y-76750000D03*
X75000000Y-76750000D03*
X72750000Y-76750000D03*
X70500000Y-76750000D03*
X68250000Y-76750000D03*
X75000000Y-74500000D03*
X72750000Y-74500000D03*
X70500000Y-74500000D03*
X68250000Y-74500000D03*
X75000000Y-72250000D03*
X72750000Y-72250000D03*
X70500000Y-72250000D03*
X68250000Y-72250000D03*
X75000000Y-70000000D03*
X72750000Y-70000000D03*
X70500000Y-70000000D03*
X68250000Y-70000000D03*
X75000000Y-67750000D03*
X72750000Y-67750000D03*
X70500000Y-67750000D03*
X68250000Y-67750000D03*
X75000000Y-65500000D03*
X72750000Y-65500000D03*
X70500000Y-65500000D03*
X68250000Y-65500000D03*
X75000000Y-63250000D03*
X72750000Y-63250000D03*
X70500000Y-63250000D03*
X68250000Y-63250000D03*
X75000000Y-61000000D03*
X72750000Y-61000000D03*
X70500000Y-61000000D03*
X68250000Y-61000000D03*
X75000000Y-58750000D03*
X72750000Y-58750000D03*
X70500000Y-58750000D03*
X68250000Y-58750000D03*
X75000000Y-56500000D03*
X72750000Y-56500000D03*
X70500000Y-56500000D03*
X68250000Y-56500000D03*
X75000000Y-54250000D03*
X72750000Y-54250000D03*
X70500000Y-54250000D03*
X68250000Y-54250000D03*
X75000000Y-52000000D03*
X72750000Y-52000000D03*
X70500000Y-52000000D03*
X68250000Y-52000000D03*
X75000000Y-49750000D03*
X72750000Y-49750000D03*
X70500000Y-49750000D03*
X68250000Y-49750000D03*
X75000000Y-47500000D03*
X72750000Y-47500000D03*
X70500000Y-47500000D03*
X68250000Y-47500000D03*
X75000000Y-45250000D03*
X72750000Y-45250000D03*
X70500000Y-45250000D03*
X68250000Y-45250000D03*
M02*
