G04 #@! TF.FileFunction,Soldermask,Top*
%FSLAX46Y46*%
G04 Gerber Fmt 4.6, Leading zero omitted, Abs format (unit mm)*
G04 Created by KiCad (PCBNEW 4.0.4-stable) date 11/30/16 05:03:10*
%MOMM*%
%LPD*%
G01*
G04 APERTURE LIST*
%ADD10C,0.150000*%
%ADD11C,0.300000*%
%ADD12R,1.900000X1.900000*%
G04 APERTURE END LIST*
D10*
D11*
X104140000Y-43180000D03*
D12*
X104140000Y-43180000D03*
D11*
X106680000Y-43180000D03*
D12*
X106680000Y-43180000D03*
D11*
X109220000Y-43180000D03*
D12*
X109220000Y-43180000D03*
D11*
X111760000Y-43180000D03*
D12*
X111760000Y-43180000D03*
D11*
X104140000Y-45720000D03*
D12*
X104140000Y-45720000D03*
D11*
X106680000Y-45720000D03*
D12*
X106680000Y-45720000D03*
D11*
X109220000Y-45720000D03*
D12*
X109220000Y-45720000D03*
D11*
X111760000Y-45720000D03*
D12*
X111760000Y-45720000D03*
D11*
X104140000Y-48260000D03*
D12*
X104140000Y-48260000D03*
D11*
X106680000Y-48260000D03*
D12*
X106680000Y-48260000D03*
D11*
X109220000Y-48260000D03*
D12*
X109220000Y-48260000D03*
D11*
X111760000Y-48260000D03*
D12*
X111760000Y-48260000D03*
D11*
X104140000Y-50800000D03*
D12*
X104140000Y-50800000D03*
D11*
X106680000Y-50800000D03*
D12*
X106680000Y-50800000D03*
D11*
X109220000Y-50800000D03*
D12*
X109220000Y-50800000D03*
D11*
X111760000Y-50800000D03*
D12*
X111760000Y-50800000D03*
D11*
X104140000Y-53340000D03*
D12*
X104140000Y-53340000D03*
D11*
X106680000Y-53340000D03*
D12*
X106680000Y-53340000D03*
D11*
X109220000Y-53340000D03*
D12*
X109220000Y-53340000D03*
D11*
X111760000Y-53340000D03*
D12*
X111760000Y-53340000D03*
D11*
X104140000Y-55880000D03*
D12*
X104140000Y-55880000D03*
D11*
X106680000Y-55880000D03*
D12*
X106680000Y-55880000D03*
D11*
X109220000Y-55880000D03*
D12*
X109220000Y-55880000D03*
D11*
X111760000Y-55880000D03*
D12*
X111760000Y-55880000D03*
D11*
X104140000Y-58420000D03*
D12*
X104140000Y-58420000D03*
D11*
X106680000Y-58420000D03*
D12*
X106680000Y-58420000D03*
D11*
X109220000Y-58420000D03*
D12*
X109220000Y-58420000D03*
D11*
X111760000Y-58420000D03*
D12*
X111760000Y-58420000D03*
D11*
X104140000Y-60960000D03*
D12*
X104140000Y-60960000D03*
D11*
X106680000Y-60960000D03*
D12*
X106680000Y-60960000D03*
D11*
X109220000Y-60960000D03*
D12*
X109220000Y-60960000D03*
D11*
X111760000Y-60960000D03*
D12*
X111760000Y-60960000D03*
D11*
X104140000Y-63500000D03*
D12*
X104140000Y-63500000D03*
D11*
X106680000Y-63500000D03*
D12*
X106680000Y-63500000D03*
D11*
X109220000Y-63500000D03*
D12*
X109220000Y-63500000D03*
D11*
X111760000Y-63500000D03*
D12*
X111760000Y-63500000D03*
D11*
X104140000Y-66040000D03*
D12*
X104140000Y-66040000D03*
D11*
X106680000Y-66040000D03*
D12*
X106680000Y-66040000D03*
D11*
X109220000Y-66040000D03*
D12*
X109220000Y-66040000D03*
D11*
X111760000Y-66040000D03*
D12*
X111760000Y-66040000D03*
D11*
X104140000Y-68580000D03*
D12*
X104140000Y-68580000D03*
D11*
X106680000Y-68580000D03*
D12*
X106680000Y-68580000D03*
D11*
X109220000Y-68580000D03*
D12*
X109220000Y-68580000D03*
D11*
X111760000Y-68580000D03*
D12*
X111760000Y-68580000D03*
D11*
X104140000Y-71120000D03*
D12*
X104140000Y-71120000D03*
D11*
X106680000Y-71120000D03*
D12*
X106680000Y-71120000D03*
D11*
X109220000Y-71120000D03*
D12*
X109220000Y-71120000D03*
D11*
X111760000Y-71120000D03*
D12*
X111760000Y-71120000D03*
D11*
X104140000Y-73660000D03*
D12*
X104140000Y-73660000D03*
D11*
X106680000Y-73660000D03*
D12*
X106680000Y-73660000D03*
D11*
X109220000Y-73660000D03*
D12*
X109220000Y-73660000D03*
D11*
X111760000Y-73660000D03*
D12*
X111760000Y-73660000D03*
D11*
X104140000Y-76200000D03*
D12*
X104140000Y-76200000D03*
D11*
X106680000Y-76200000D03*
D12*
X106680000Y-76200000D03*
D11*
X109220000Y-76200000D03*
D12*
X109220000Y-76200000D03*
D11*
X111760000Y-76200000D03*
D12*
X111760000Y-76200000D03*
D11*
X104140000Y-78740000D03*
D12*
X104140000Y-78740000D03*
D11*
X106680000Y-78740000D03*
D12*
X106680000Y-78740000D03*
D11*
X109220000Y-78740000D03*
D12*
X109220000Y-78740000D03*
D11*
X111760000Y-78740000D03*
D12*
X111760000Y-78740000D03*
D11*
X40640000Y-78740000D03*
D12*
X40640000Y-78740000D03*
D11*
X43180000Y-78740000D03*
D12*
X43180000Y-78740000D03*
D11*
X45720000Y-78740000D03*
D12*
X45720000Y-78740000D03*
D11*
X48260000Y-78740000D03*
D12*
X48260000Y-78740000D03*
D11*
X40640000Y-76200000D03*
D12*
X40640000Y-76200000D03*
D11*
X43180000Y-76200000D03*
D12*
X43180000Y-76200000D03*
D11*
X45720000Y-76200000D03*
D12*
X45720000Y-76200000D03*
D11*
X48260000Y-76200000D03*
D12*
X48260000Y-76200000D03*
D11*
X40640000Y-73660000D03*
D12*
X40640000Y-73660000D03*
D11*
X43180000Y-73660000D03*
D12*
X43180000Y-73660000D03*
D11*
X45720000Y-73660000D03*
D12*
X45720000Y-73660000D03*
D11*
X48260000Y-73660000D03*
D12*
X48260000Y-73660000D03*
D11*
X40640000Y-71120000D03*
D12*
X40640000Y-71120000D03*
D11*
X43180000Y-71120000D03*
D12*
X43180000Y-71120000D03*
D11*
X45720000Y-71120000D03*
D12*
X45720000Y-71120000D03*
D11*
X48260000Y-71120000D03*
D12*
X48260000Y-71120000D03*
D11*
X40640000Y-68580000D03*
D12*
X40640000Y-68580000D03*
D11*
X43180000Y-68580000D03*
D12*
X43180000Y-68580000D03*
D11*
X45720000Y-68580000D03*
D12*
X45720000Y-68580000D03*
D11*
X48260000Y-68580000D03*
D12*
X48260000Y-68580000D03*
D11*
X40640000Y-66040000D03*
D12*
X40640000Y-66040000D03*
D11*
X43180000Y-66040000D03*
D12*
X43180000Y-66040000D03*
D11*
X45720000Y-66040000D03*
D12*
X45720000Y-66040000D03*
D11*
X48260000Y-66040000D03*
D12*
X48260000Y-66040000D03*
D11*
X40640000Y-63500000D03*
D12*
X40640000Y-63500000D03*
D11*
X43180000Y-63500000D03*
D12*
X43180000Y-63500000D03*
D11*
X45720000Y-63500000D03*
D12*
X45720000Y-63500000D03*
D11*
X48260000Y-63500000D03*
D12*
X48260000Y-63500000D03*
D11*
X40640000Y-60960000D03*
D12*
X40640000Y-60960000D03*
D11*
X43180000Y-60960000D03*
D12*
X43180000Y-60960000D03*
D11*
X45720000Y-60960000D03*
D12*
X45720000Y-60960000D03*
D11*
X48260000Y-60960000D03*
D12*
X48260000Y-60960000D03*
D11*
X40640000Y-58420000D03*
D12*
X40640000Y-58420000D03*
D11*
X43180000Y-58420000D03*
D12*
X43180000Y-58420000D03*
D11*
X45720000Y-58420000D03*
D12*
X45720000Y-58420000D03*
D11*
X48260000Y-58420000D03*
D12*
X48260000Y-58420000D03*
D11*
X40640000Y-55880000D03*
D12*
X40640000Y-55880000D03*
D11*
X43180000Y-55880000D03*
D12*
X43180000Y-55880000D03*
D11*
X45720000Y-55880000D03*
D12*
X45720000Y-55880000D03*
D11*
X48260000Y-55880000D03*
D12*
X48260000Y-55880000D03*
D11*
X40640000Y-53340000D03*
D12*
X40640000Y-53340000D03*
D11*
X43180000Y-53340000D03*
D12*
X43180000Y-53340000D03*
D11*
X45720000Y-53340000D03*
D12*
X45720000Y-53340000D03*
D11*
X48260000Y-53340000D03*
D12*
X48260000Y-53340000D03*
D11*
X40640000Y-50800000D03*
D12*
X40640000Y-50800000D03*
D11*
X43180000Y-50800000D03*
D12*
X43180000Y-50800000D03*
D11*
X45720000Y-50800000D03*
D12*
X45720000Y-50800000D03*
D11*
X48260000Y-50800000D03*
D12*
X48260000Y-50800000D03*
D11*
X40640000Y-48260000D03*
D12*
X40640000Y-48260000D03*
D11*
X43180000Y-48260000D03*
D12*
X43180000Y-48260000D03*
D11*
X45720000Y-48260000D03*
D12*
X45720000Y-48260000D03*
D11*
X48260000Y-48260000D03*
D12*
X48260000Y-48260000D03*
D11*
X40640000Y-45720000D03*
D12*
X40640000Y-45720000D03*
D11*
X43180000Y-45720000D03*
D12*
X43180000Y-45720000D03*
D11*
X45720000Y-45720000D03*
D12*
X45720000Y-45720000D03*
D11*
X48260000Y-45720000D03*
D12*
X48260000Y-45720000D03*
D11*
X40640000Y-43180000D03*
D12*
X40640000Y-43180000D03*
D11*
X43180000Y-43180000D03*
D12*
X43180000Y-43180000D03*
D11*
X45720000Y-43180000D03*
D12*
X45720000Y-43180000D03*
D11*
X48260000Y-43180000D03*
D12*
X48260000Y-43180000D03*
M02*
