M48
;DRILL file {KiCad 4.0.4-stable} date 11/30/16 05:03:11
;FORMAT={-:-/ absolute / inch / decimal}
FMAT,2
INCH,TZ
T1C0.006
%
G90
G05
M72
T1
X1.6Y-1.7
X1.6Y-1.8
X1.6Y-1.9
X1.6Y-2.
X1.6Y-2.1
X1.6Y-2.2
X1.6Y-2.3
X1.6Y-2.4
X1.6Y-2.5
X1.6Y-2.6
X1.6Y-2.7
X1.6Y-2.8
X1.6Y-2.9
X1.6Y-3.
X1.6Y-3.1
X1.7Y-1.7
X1.7Y-1.8
X1.7Y-1.9
X1.7Y-2.
X1.7Y-2.1
X1.7Y-2.2
X1.7Y-2.3
X1.7Y-2.4
X1.7Y-2.5
X1.7Y-2.6
X1.7Y-2.7
X1.7Y-2.8
X1.7Y-2.9
X1.7Y-3.
X1.7Y-3.1
X1.8Y-1.7
X1.8Y-1.8
X1.8Y-1.9
X1.8Y-2.
X1.8Y-2.1
X1.8Y-2.2
X1.8Y-2.3
X1.8Y-2.4
X1.8Y-2.5
X1.8Y-2.6
X1.8Y-2.7
X1.8Y-2.8
X1.8Y-2.9
X1.8Y-3.
X1.8Y-3.1
X1.9Y-1.7
X1.9Y-1.8
X1.9Y-1.9
X1.9Y-2.
X1.9Y-2.1
X1.9Y-2.2
X1.9Y-2.3
X1.9Y-2.4
X1.9Y-2.5
X1.9Y-2.6
X1.9Y-2.7
X1.9Y-2.8
X1.9Y-2.9
X1.9Y-3.
X1.9Y-3.1
X2.687Y-1.7815
X2.687Y-1.8701
X2.687Y-1.9587
X2.687Y-2.0472
X2.687Y-2.1358
X2.687Y-2.2244
X2.687Y-2.313
X2.687Y-2.4016
X2.687Y-2.4902
X2.687Y-2.5787
X2.687Y-2.6673
X2.687Y-2.7559
X2.687Y-2.8445
X2.687Y-2.9331
X2.687Y-3.0217
X2.7756Y-1.7815
X2.7756Y-1.8701
X2.7756Y-1.9587
X2.7756Y-2.0472
X2.7756Y-2.1358
X2.7756Y-2.2244
X2.7756Y-2.313
X2.7756Y-2.4016
X2.7756Y-2.4902
X2.7756Y-2.5787
X2.7756Y-2.6673
X2.7756Y-2.7559
X2.7756Y-2.8445
X2.7756Y-2.9331
X2.7756Y-3.0217
X2.8642Y-1.7815
X2.8642Y-1.8701
X2.8642Y-1.9587
X2.8642Y-2.0472
X2.8642Y-2.1358
X2.8642Y-2.2244
X2.8642Y-2.313
X2.8642Y-2.4016
X2.8642Y-2.4902
X2.8642Y-2.5787
X2.8642Y-2.6673
X2.8642Y-2.7559
X2.8642Y-2.8445
X2.8642Y-2.9331
X2.8642Y-3.0217
X2.9528Y-1.7815
X2.9528Y-1.8701
X2.9528Y-1.9587
X2.9528Y-2.0472
X2.9528Y-2.1358
X2.9528Y-2.2244
X2.9528Y-2.313
X2.9528Y-2.4016
X2.9528Y-2.4902
X2.9528Y-2.5787
X2.9528Y-2.6673
X2.9528Y-2.7559
X2.9528Y-2.8445
X2.9528Y-2.9331
X2.9528Y-3.0217
X3.0413Y-1.7815
X3.0413Y-1.8701
X3.0413Y-1.9587
X3.0413Y-2.0472
X3.0413Y-2.1358
X3.0413Y-2.2244
X3.0413Y-2.313
X3.0413Y-2.4016
X3.0413Y-2.4902
X3.0413Y-2.5787
X3.0413Y-2.6673
X3.0413Y-2.7559
X3.0413Y-2.8445
X3.0413Y-2.9331
X3.0413Y-3.0217
X3.1299Y-1.7815
X3.1299Y-1.8701
X3.1299Y-1.9587
X3.1299Y-2.0472
X3.1299Y-2.1358
X3.1299Y-2.2244
X3.1299Y-2.313
X3.1299Y-2.4016
X3.1299Y-2.4902
X3.1299Y-2.5787
X3.1299Y-2.6673
X3.1299Y-2.7559
X3.1299Y-2.8445
X3.1299Y-2.9331
X3.1299Y-3.0217
X3.2185Y-1.7815
X3.2185Y-1.8701
X3.2185Y-1.9587
X3.2185Y-2.0472
X3.2185Y-2.1358
X3.2185Y-2.2244
X3.2185Y-2.313
X3.2185Y-2.4016
X3.2185Y-2.4902
X3.2185Y-2.5787
X3.2185Y-2.6673
X3.2185Y-2.7559
X3.2185Y-2.8445
X3.2185Y-2.9331
X3.2185Y-3.0217
X3.3071Y-1.7815
X3.3071Y-1.8701
X3.3071Y-1.9587
X3.3071Y-2.0472
X3.3071Y-2.1358
X3.3071Y-2.2244
X3.3071Y-2.313
X3.3071Y-2.4016
X3.3071Y-2.4902
X3.3071Y-2.5787
X3.3071Y-2.6673
X3.3071Y-2.7559
X3.3071Y-2.8445
X3.3071Y-2.9331
X3.3071Y-3.0217
X4.1Y-1.7
X4.1Y-1.8
X4.1Y-1.9
X4.1Y-2.
X4.1Y-2.1
X4.1Y-2.2
X4.1Y-2.3
X4.1Y-2.4
X4.1Y-2.5
X4.1Y-2.6
X4.1Y-2.7
X4.1Y-2.8
X4.1Y-2.9
X4.1Y-3.
X4.1Y-3.1
X4.2Y-1.7
X4.2Y-1.8
X4.2Y-1.9
X4.2Y-2.
X4.2Y-2.1
X4.2Y-2.2
X4.2Y-2.3
X4.2Y-2.4
X4.2Y-2.5
X4.2Y-2.6
X4.2Y-2.7
X4.2Y-2.8
X4.2Y-2.9
X4.2Y-3.
X4.2Y-3.1
X4.3Y-1.7
X4.3Y-1.8
X4.3Y-1.9
X4.3Y-2.
X4.3Y-2.1
X4.3Y-2.2
X4.3Y-2.3
X4.3Y-2.4
X4.3Y-2.5
X4.3Y-2.6
X4.3Y-2.7
X4.3Y-2.8
X4.3Y-2.9
X4.3Y-3.
X4.3Y-3.1
X4.4Y-1.7
X4.4Y-1.8
X4.4Y-1.9
X4.4Y-2.
X4.4Y-2.1
X4.4Y-2.2
X4.4Y-2.3
X4.4Y-2.4
X4.4Y-2.5
X4.4Y-2.6
X4.4Y-2.7
X4.4Y-2.8
X4.4Y-2.9
X4.4Y-3.
X4.4Y-3.1
T0
M30
