G04 #@! TF.FileFunction,Legend,Top*
%FSLAX46Y46*%
G04 Gerber Fmt 4.6, Leading zero omitted, Abs format (unit mm)*
G04 Created by KiCad (PCBNEW 4.0.4-stable) date 11/30/16 02:15:23*
%MOMM*%
%LPD*%
G01*
G04 APERTURE LIST*
%ADD10C,0.150000*%
%ADD11C,0.200000*%
G04 APERTURE END LIST*
D10*
D11*
X101838095Y-36892381D02*
X102028571Y-37892381D01*
X102180952Y-37178095D01*
X102333333Y-37892381D01*
X102523809Y-36892381D01*
X102828571Y-37892381D02*
X102828571Y-36892381D01*
X103171428Y-37892381D02*
X103171428Y-37368571D01*
X103133333Y-37273333D01*
X103057143Y-37225714D01*
X102942857Y-37225714D01*
X102866666Y-37273333D01*
X102828571Y-37320952D01*
X103857143Y-37844762D02*
X103780953Y-37892381D01*
X103628572Y-37892381D01*
X103552381Y-37844762D01*
X103514286Y-37749524D01*
X103514286Y-37368571D01*
X103552381Y-37273333D01*
X103628572Y-37225714D01*
X103780953Y-37225714D01*
X103857143Y-37273333D01*
X103895238Y-37368571D01*
X103895238Y-37463810D01*
X103514286Y-37559048D01*
X104542857Y-37844762D02*
X104466667Y-37892381D01*
X104314286Y-37892381D01*
X104238095Y-37844762D01*
X104200000Y-37749524D01*
X104200000Y-37368571D01*
X104238095Y-37273333D01*
X104314286Y-37225714D01*
X104466667Y-37225714D01*
X104542857Y-37273333D01*
X104580952Y-37368571D01*
X104580952Y-37463810D01*
X104200000Y-37559048D01*
X105038095Y-37892381D02*
X104961904Y-37844762D01*
X104923809Y-37749524D01*
X104923809Y-36892381D01*
X105647619Y-37844762D02*
X105571429Y-37892381D01*
X105419048Y-37892381D01*
X105342857Y-37844762D01*
X105304762Y-37749524D01*
X105304762Y-37368571D01*
X105342857Y-37273333D01*
X105419048Y-37225714D01*
X105571429Y-37225714D01*
X105647619Y-37273333D01*
X105685714Y-37368571D01*
X105685714Y-37463810D01*
X105304762Y-37559048D01*
X106028571Y-37892381D02*
X106028571Y-37225714D01*
X106028571Y-37416190D02*
X106066666Y-37320952D01*
X106104762Y-37273333D01*
X106180952Y-37225714D01*
X106257143Y-37225714D01*
X107514286Y-37892381D02*
X107133333Y-37892381D01*
X107133333Y-36892381D01*
X108123809Y-37892381D02*
X108123809Y-37368571D01*
X108085714Y-37273333D01*
X108009524Y-37225714D01*
X107857143Y-37225714D01*
X107780952Y-37273333D01*
X108123809Y-37844762D02*
X108047619Y-37892381D01*
X107857143Y-37892381D01*
X107780952Y-37844762D01*
X107742857Y-37749524D01*
X107742857Y-37654286D01*
X107780952Y-37559048D01*
X107857143Y-37511429D01*
X108047619Y-37511429D01*
X108123809Y-37463810D01*
X108504762Y-37892381D02*
X108504762Y-36892381D01*
X108504762Y-37273333D02*
X108580953Y-37225714D01*
X108733334Y-37225714D01*
X108809524Y-37273333D01*
X108847619Y-37320952D01*
X108885715Y-37416190D01*
X108885715Y-37701905D01*
X108847619Y-37797143D01*
X108809524Y-37844762D01*
X108733334Y-37892381D01*
X108580953Y-37892381D01*
X108504762Y-37844762D01*
X109266667Y-37844762D02*
X109266667Y-37892381D01*
X109228572Y-37987619D01*
X109190477Y-38035238D01*
X110180953Y-36987619D02*
X110219048Y-36940000D01*
X110295239Y-36892381D01*
X110485715Y-36892381D01*
X110561905Y-36940000D01*
X110600001Y-36987619D01*
X110638096Y-37082857D01*
X110638096Y-37178095D01*
X110600001Y-37320952D01*
X110142858Y-37892381D01*
X110638096Y-37892381D01*
X111133334Y-36892381D02*
X111209525Y-36892381D01*
X111285715Y-36940000D01*
X111323810Y-36987619D01*
X111361906Y-37082857D01*
X111400001Y-37273333D01*
X111400001Y-37511429D01*
X111361906Y-37701905D01*
X111323810Y-37797143D01*
X111285715Y-37844762D01*
X111209525Y-37892381D01*
X111133334Y-37892381D01*
X111057144Y-37844762D01*
X111019048Y-37797143D01*
X110980953Y-37701905D01*
X110942858Y-37511429D01*
X110942858Y-37273333D01*
X110980953Y-37082857D01*
X111019048Y-36987619D01*
X111057144Y-36940000D01*
X111133334Y-36892381D01*
X112161906Y-37892381D02*
X111704763Y-37892381D01*
X111933334Y-37892381D02*
X111933334Y-36892381D01*
X111857144Y-37035238D01*
X111780953Y-37130476D01*
X111704763Y-37178095D01*
X112847620Y-36892381D02*
X112695239Y-36892381D01*
X112619049Y-36940000D01*
X112580954Y-36987619D01*
X112504763Y-37130476D01*
X112466668Y-37320952D01*
X112466668Y-37701905D01*
X112504763Y-37797143D01*
X112542858Y-37844762D01*
X112619049Y-37892381D01*
X112771430Y-37892381D01*
X112847620Y-37844762D01*
X112885716Y-37797143D01*
X112923811Y-37701905D01*
X112923811Y-37463810D01*
X112885716Y-37368571D01*
X112847620Y-37320952D01*
X112771430Y-37273333D01*
X112619049Y-37273333D01*
X112542858Y-37320952D01*
X112504763Y-37368571D01*
X112466668Y-37463810D01*
X39704762Y-37540952D02*
X39628571Y-37493333D01*
X39590476Y-37445714D01*
X39552381Y-37350476D01*
X39552381Y-37302857D01*
X39590476Y-37207619D01*
X39628571Y-37160000D01*
X39704762Y-37112381D01*
X39857143Y-37112381D01*
X39933333Y-37160000D01*
X39971429Y-37207619D01*
X40009524Y-37302857D01*
X40009524Y-37350476D01*
X39971429Y-37445714D01*
X39933333Y-37493333D01*
X39857143Y-37540952D01*
X39704762Y-37540952D01*
X39628571Y-37588571D01*
X39590476Y-37636190D01*
X39552381Y-37731429D01*
X39552381Y-37921905D01*
X39590476Y-38017143D01*
X39628571Y-38064762D01*
X39704762Y-38112381D01*
X39857143Y-38112381D01*
X39933333Y-38064762D01*
X39971429Y-38017143D01*
X40009524Y-37921905D01*
X40009524Y-37731429D01*
X39971429Y-37636190D01*
X39933333Y-37588571D01*
X39857143Y-37540952D01*
X40276191Y-38112381D02*
X40695238Y-37445714D01*
X40276191Y-37445714D02*
X40695238Y-38112381D01*
X41419048Y-38112381D02*
X40961905Y-38112381D01*
X41190476Y-38112381D02*
X41190476Y-37112381D01*
X41114286Y-37255238D01*
X41038095Y-37350476D01*
X40961905Y-37398095D01*
X42142858Y-37112381D02*
X41761905Y-37112381D01*
X41723810Y-37588571D01*
X41761905Y-37540952D01*
X41838096Y-37493333D01*
X42028572Y-37493333D01*
X42104762Y-37540952D01*
X42142858Y-37588571D01*
X42180953Y-37683810D01*
X42180953Y-37921905D01*
X42142858Y-38017143D01*
X42104762Y-38064762D01*
X42028572Y-38112381D01*
X41838096Y-38112381D01*
X41761905Y-38064762D01*
X41723810Y-38017143D01*
X42523810Y-37731429D02*
X43133334Y-37731429D01*
X43857143Y-38112381D02*
X43857143Y-37588571D01*
X43819048Y-37493333D01*
X43742858Y-37445714D01*
X43590477Y-37445714D01*
X43514286Y-37493333D01*
X43857143Y-38064762D02*
X43780953Y-38112381D01*
X43590477Y-38112381D01*
X43514286Y-38064762D01*
X43476191Y-37969524D01*
X43476191Y-37874286D01*
X43514286Y-37779048D01*
X43590477Y-37731429D01*
X43780953Y-37731429D01*
X43857143Y-37683810D01*
X44238096Y-38112381D02*
X44238096Y-37445714D01*
X44238096Y-37636190D02*
X44276191Y-37540952D01*
X44314287Y-37493333D01*
X44390477Y-37445714D01*
X44466668Y-37445714D01*
X44733334Y-38112381D02*
X44733334Y-37445714D01*
X44733334Y-37636190D02*
X44771429Y-37540952D01*
X44809525Y-37493333D01*
X44885715Y-37445714D01*
X44961906Y-37445714D01*
X45571429Y-38112381D02*
X45571429Y-37588571D01*
X45533334Y-37493333D01*
X45457144Y-37445714D01*
X45304763Y-37445714D01*
X45228572Y-37493333D01*
X45571429Y-38064762D02*
X45495239Y-38112381D01*
X45304763Y-38112381D01*
X45228572Y-38064762D01*
X45190477Y-37969524D01*
X45190477Y-37874286D01*
X45228572Y-37779048D01*
X45304763Y-37731429D01*
X45495239Y-37731429D01*
X45571429Y-37683810D01*
X45876192Y-37445714D02*
X46066668Y-38112381D01*
X46257144Y-37445714D02*
X46066668Y-38112381D01*
X45990477Y-38350476D01*
X45952382Y-38398095D01*
X45876192Y-38445714D01*
X46600001Y-38064762D02*
X46600001Y-38112381D01*
X46561906Y-38207619D01*
X46523811Y-38255238D01*
X47476192Y-37445714D02*
X47666668Y-38112381D01*
X47857144Y-37445714D01*
X48314287Y-37112381D02*
X48390478Y-37112381D01*
X48466668Y-37160000D01*
X48504763Y-37207619D01*
X48542859Y-37302857D01*
X48580954Y-37493333D01*
X48580954Y-37731429D01*
X48542859Y-37921905D01*
X48504763Y-38017143D01*
X48466668Y-38064762D01*
X48390478Y-38112381D01*
X48314287Y-38112381D01*
X48238097Y-38064762D01*
X48200001Y-38017143D01*
X48161906Y-37921905D01*
X48123811Y-37731429D01*
X48123811Y-37493333D01*
X48161906Y-37302857D01*
X48200001Y-37207619D01*
X48238097Y-37160000D01*
X48314287Y-37112381D01*
X48923811Y-38017143D02*
X48961906Y-38064762D01*
X48923811Y-38112381D01*
X48885716Y-38064762D01*
X48923811Y-38017143D01*
X48923811Y-38112381D01*
X49723811Y-38112381D02*
X49266668Y-38112381D01*
X49495239Y-38112381D02*
X49495239Y-37112381D01*
X49419049Y-37255238D01*
X49342858Y-37350476D01*
X49266668Y-37398095D01*
M02*
